<svg version="1.1" id="layer_1" xmlns="http://www.w3.org/2000/svg" x="0" y="0" viewBox="0 0 529.7 649.4" xml:space="preserve"><style xmlns="http://www.w3.org/2000/svg">@keyframes rocketBg{0%{transform:translate(0,0)}50%{transform:translate(0,15px)}}@keyframes rocketFire{0%{opacity:1}50%{opacity:.1}}@keyframes rocketCloud-2{0%{opacity:1}50%{opacity:.1}}@keyframes rocketCloud-3{0%{opacity:1}50%{opacity:.1}}@keyframes rocketCloud-4{0%{opacity:1}50%{opacity:.1}}@keyframes rocketCloud-5{0%{transform:translate(0,0)}50%{transform:translate(10px,0)}}.rocket_bg,.rocket_cloud_4{animation-duration:3s}.rocket_bg,.rocket_cloud_4,.rocket_cloud_5{animation-iteration-count:infinite}.rocket_bg{animation-name:rocketBg;transform-origin:50% 50%}.rocket_cloud_4{animation-name:rocketCloud-4}.rocket_cloud_5{animation-name:rocketCloud-5;animation-duration:5s;transform-origin:50% 50%}</style><style>.st0{fill:#d1ddff}.st1{fill:#4c4dc3}.st2{fill:#ffaa83}.st3{enable-background:new}.st4{fill:#61a1f0}.st5{fill:#6e6fda}.st6{fill:#9899ef}.st7{fill:#ee428c}.st8{fill:#ffbd59}.st9{fill:#bc4274}.st10{fill:#fff}.st18{fill:#ffdb5a}.st19{fill:#ff65a7}.st20{fill:#8c8c8c}.st21{fill:#151336}.st22{fill:#155e7c}.st23{fill:none}.st24{fill:#132147}</style><path class="st0" d="M153.1 368.9L120 350.3a5.1 5.1 0 00-4.8 0l-80.2 45a4.9 4.9 0 000 8.6l33.1 18.6c1.5.8 3.3.8 4.8 0l80.2-45a4.9 4.9 0 000-8.6z"/><path class="st1" d="M63.8 148c-1.2 0-5.1 5-8.2 6.4-4.5 2.1-4-3.2-4-3.2s-3.8-1.4-7.6-1.7c-.5 0-.9.3-.9.7.1.3 1.6 5.9 6.8 8.5 1.2.6 2.5 1.1 3.8.6l7.3-3.4-1.7 6.3c.8.9 1.6.3 1.6.3s.4-2.2 3.2-7.2c3-4.7-.3-7.3-.3-7.3z"/><path class="st2" d="M58.2 113.1l2.7 1.7 2.5-13c-3.2-1.3-16.6-5.4-16.7 3.5-.1 8.9 9.4 37.6 8.9 41.2-.3 2.8-3.2 4.6-5.2 5.5-.9.4-1.1 1.7-.3 2.3 2.6 2.1 7.1.3 8.6-1.5 2.2-2.5 5.2-4.7 5.2-4.7-1.8-2-1.9-7.5-2.1-17.5-.3-10.1-3.6-17.5-3.6-17.5z"/><path class="st1" d="M50.6 160.1c-1.2 0-5.1 5-8.2 6.4-4.5 2.1-4-3.2-4-3.2s-3.8-1.4-7.6-1.7c-.5 0-.9.3-.9.7.1.3 1.6 5.9 6.8 8.5 1.2.6 2.5 1.1 3.8.6l7.3-3.4-1.7 6.3c.8.9 1.6.3 1.6.3s.4-2.2 3.2-7.2c2.9-4.8-.3-7.3-.3-7.3z"/><path class="st2" d="M44.9 125.1l2.7 1.7 2.2-14.6c-3.2-1.3-16.4-3.8-16.5 5.1-.1 8.9 9.4 37.6 8.9 41.2-.3 2.8-3.2 4.6-5.2 5.5-.9.4-1.1 1.7-.3 2.3 2.6 2.1 7.1.3 8.6-1.5 2.2-2.5 5.2-4.7 5.2-4.7-1.8-2.1-1.9-7.5-2.1-17.5-.2-10-3.5-17.5-3.5-17.5z"/><g class="st3"><path class="st4" d="M90.5 372c-.6-.5-1.2-.8-2-1.1l-.2-66.4-10.5 5.9.2 64c-1.8 1.9-3.3 4.3-4.1 6.8L0 422.7v12l76-42.6c1.2 1 2.8 1.5 4.5 1.5 1.5 0 3.1-.4 4.6-1.3 3.3-1.9 6.2-5.5 7.4-9.5l73.9-41.4v-12L90.5 372z"/></g><g class="st3"><path class="st0" d="M167.7 348.9l-.5-.3c-.8-.5-1.8-.5-2.6 0L3.2 439c-1.7 1-1.7 3.4-.1 4.4l.5.3c.8.5 1.8.5 2.6 0l73.4-41.1c.7-.4 1.7-.4 2.4 0 1 .5 2.2.8 3.4.8 1.5 0 3.1-.4 4.6-1.3 3.1-1.7 5.7-5 7.1-8.6.2-.6.6-1.1 1.1-1.4l69.3-38.8c1.8-.9 1.8-3.3.2-4.4z"/></g><path class="st5" d="M22.5 329.1l43.1 24.4V166l-43.1-24.3z"/><path class="st6" d="M22.5 141.7L65.6 166l90.3-50.6-43.1-24.3z"/><path class="st1" d="M65.6 353.5l90.3-50.6V115.4L65.6 166z"/><path class="st5" d="M75.4 211l70.7-39.7v-39.6l-70.7 39.7z"/><path class="st1" d="M91.6 195.8l9.3-5.2v-11.2l-9.3 5.2zm13-7.4l9.2-5.2V172l-9.2 5.2zm12.9-7.4l9.3-5.3v-11.2l-9.3 5.2zm12.9-7.5l9.3-5.2v-11.2l-9.3 5.2zm-38.8 5.9l9.3-5.2V163l-9.3 5.2zm13-7.4l9.2-5.2v-11.2l-9.2 5.2zm12.9-7.4l9.3-5.2v-11.3l-9.3 5.2zm12.9-7.5l9.3-5.2v-11.2l-9.3 5.2z"/><path class="st5" d="M75.4 265.2l70.7-39.7V186l-70.7 39.6zm0 53.9l70.7-39.7v-39.5l-70.7 39.6z"/><path class="st7" d="M81.8 174c-2 1.7-3.3 5.2-2.9 7.8.5 2.6 2.5 3.3 4.5 1.6 2-1.7 3.3-5.2 2.9-7.8-.5-2.6-2.5-3.3-4.5-1.6z"/><path class="st8" d="M81.8 188.5c-2 1.7-3.3 5.2-2.9 7.8.5 2.6 2.5 3.3 4.5 1.6 2-1.7 3.3-5.2 2.9-7.8-.5-2.5-2.5-3.3-4.5-1.6z"/><path class="st1" d="M91.6 250l9.3-5.2v-11.2l-9.3 5.2zm13-7.4l9.2-5.2v-11.3l-9.2 5.2zm12.9-7.5l9.3-5.2v-11.2l-9.3 5.2zm12.9-7.4l9.3-5.2v-11.2l-9.3 5.2zm-38.8 5.9l9.3-5.2v-11.2l-9.3 5.2zm13-7.4l9.2-5.2v-11.3l-9.2 5.2zm12.9-7.5l9.3-5.2v-11.2l-9.3 5.2zm12.9-7.4l9.3-5.2v-11.2l-9.3 5.2z"/><path class="st7" d="M81.8 228.2c-2 1.7-3.3 5.2-2.9 7.8.5 2.6 2.5 3.3 4.5 1.6 2-1.7 3.3-5.2 2.9-7.8-.5-2.6-2.5-3.3-4.5-1.6z"/><path class="st8" d="M81.8 242.7c-2 1.7-3.3 5.2-2.9 7.8.5 2.6 2.5 3.3 4.5 1.6 2-1.7 3.3-5.2 2.9-7.8-.5-2.5-2.5-3.3-4.5-1.6z"/><path class="st1" d="M91.6 304.2l9.3-5.2v-11.2l-9.3 5.2zm13-7.4l9.2-5.3v-11.2l-9.2 5.2zm12.9-7.5l9.3-5.2v-11.2l-9.3 5.2zm12.9-7.4l9.3-5.2v-11.3l-9.3 5.2zm-38.8 5.9l9.3-5.2v-11.2l-9.3 5.2zm13-7.4l9.2-5.2v-11.3l-9.2 5.2zm12.9-7.5l9.3-5.2v-11.2l-9.3 5.2zm12.9-7.4l9.3-5.2V249l-9.3 5.2z"/><path class="st7" d="M81.8 282.4c-2 1.7-3.3 5.2-2.9 7.8.5 2.6 2.5 3.3 4.5 1.6 2-1.7 3.3-5.2 2.9-7.8-.5-2.6-2.5-3.3-4.5-1.6z"/><path class="st8" d="M81.8 296.9c-2 1.7-3.3 5.2-2.9 7.8.5 2.6 2.5 3.3 4.5 1.6 2-1.7 3.3-5.2 2.9-7.8-.5-2.6-2.5-3.3-4.5-1.6z"/><path class="st9" d="M86.1 110.3c-.1.1-11.8 11.7-20.8 3.3l-1.5-12.9s-7.5 6.7-10.6 8.9c-10.3 7.1-7.7 15.9-7.7 15.9 13.3 11.2 26.1 16.3 37 6.6 11.1-9.9 3.6-21.8 3.6-21.8z"/><path class="st0" d="M60.6 110.1L57 108c-.4-.2-.9-.2-1.2 0l-4.5 2.7c-.3.2-.3.5 0 .7l3.6 2.1c.4.2.9.2 1.2 0l4.5-2.7c.4-.2.4-.5 0-.7z"/><path class="st10" d="M72.7 104.3L54.2 93.5c-.4-.2-1-.2-1.4 0l-26 15.7c-.4.2-.4.6 0 .8l18.5 10.7c.4.2 1 .2 1.4 0l26-15.7c.4-.2.4-.5 0-.7zm-12 6.5l-4.5 2.7c-.3.2-.9.2-1.2 0l-3.6-2.1c-.4-.2-.4-.5 0-.7l4.5-2.7c.3-.2.9-.2 1.2 0l3.6 2.1c.3.2.3.5 0 .7zm-20.7 5l-9.7-5.6 24.2-14.6 9.7 5.6L40 115.8z"/><path class="st0" d="M73 104.8v.1s0 .1-.1.1h-.2l-26 15.7c-.1 0-.1.1-.2.1h-1c-.1 0-.1 0-.2-.1L26.8 110c-.2-.1-.3-.3-.3-.4v1.3c0 .1.1.3.3.4L45.3 122s.1 0 .1.1h.7c.1 0 .1-.1.2-.1l26-15.7h.1l.1-.1v-1.5c.5 0 .5 0 .5.1z"/><path class="st0" d="M29.5 110.2l10 5.9 25.2-15.3L54.6 95z"/><path class="st1" d="M63.8 100.8l-.9.6h-.4l-2.3-1.3.7-.5v-.3.1h-.1l-.9.5h-.4l-2.3-1.3.7-.5v-.3.1l-1.2.7h-.4l-.9-.5 1.1-.7v-.3.1h-.1L52.9 99h-.4l-.9-.5.5-.3v-.3l.1.1h.1l1.1-.7v-.2h.1l1.1-.7v-.3.1l-1.1.7h-.4l-.1-.8-.1-.1v.3s0 .1.1.1l.8.5-1.1.7h-.4l-.9-.6-.1-.1v.3s0 .1.1.1l.8.5-1.2.8h-.4l-.9-.6-.1-.1v.3s0 .1.1.1l.8.5-1.1.7H49l-.9-.5-.1-.1v.3s0 .1.1.1l.8.5-1.1.7h-.4l-.9-.5-.1-.1v.3s0 .1.1.1l.8.5-1.1.7h-.4l-.9-.5-.1-.1v.3s0 .1.1.1l.8.5-1.1.7h-.4l-.9-.5-.1-.1v.3s0 .1.1.1l.8.5-1.1.7h-.4l-.9-.5-.1-.1v.3s0 .1.1.1l.8.5-1.1.7H41l-.9-.5-.1-.1v.3s0 .1.1.1l.8.5-1.1.7h-.4l-.9-.5h-.1v-.1.3s0 .1.1.1l.8.5-1.1.7h-.4l-.9-.5h-.1v-.1.3s0 .1.1.1l.8.5-1.1.7h-.4l-.9-.5-.1-.1v.3s0 .1.1.1l.8.5-1.1.7h-.4l-.9-.5-.1-.1v.3s0 .1.1.1l.8.5-1.1.7H33l-.9-.5-.1-.1v.3s0 .1.1.1l.8.5-1.1.7h-.4l-.9-.5-.1-.1v.3s0 .1.1.1l.9.5h.1l.6-.4v.2s0 .1.1.1l.9.5h.1l1.1-.7v-.3l.1.1h.1l.9-.5v.2s0 .1.1.1l.8.5-2.5 1.5h-.4l-.9-.5-.1-.1v.3s0 .1.1.1l.9.5h.2v.2s0 .1.1.1l.9.5h.2v.2s0 .1.1.1l.9.5h.1l.4-.2v.2s0 .1.1.1l.9.5v.3s0 .1.1.1l.9.5h.1l.9-.5v-.2l.1.1h.1l1.1-.7v-.3l.1.1h.1l1.1-.7v-.3l.1.1h.1l1.1-.7v-.3l.1.1h.1l1.1-.7v-.3l.1.1h.1l7.6-4.6v-.3l.1.1 1.1-.7v-.3l.1.1h.1l1.1-.7v-.3l.1.1h.1l1.1-.7v-.3l.1.1h.1l1.1-.7v-.3.1l-1.1.7h-.4l-.9-.5-.1-.1v.3s0 .1.1.1l.8.5-1.1.7h-.4l-.9-.5.2-.1v-.3l.1.1.6-.4v-.3l.1.1h.1l1.3-.8v-.2l1.5.8h.1l.9-.5 5.5-1.7c0-.1 0-.1 0 0zm-5.9.2l-1.5 1H56l-.9-.5 1-.6v-.3H56l-2.2 1.4h-.4l-.9-.5.5-.5v-.3l.4.2v-.3l-1.2-.7.2-.1v-.3l.1.1h.1l1-.6v.2s0 .1.1.1l.9.5h.1l.4-.2v.2s0 .1.1.1l.9.5h.2v.2s0 .1.1.1l1.5.3z"/><path class="st1" d="M58.3 99.4c0 .1 0 .1 0 0 0 .1 0 .1 0 0 0 .1 0 .1 0 0-.1.1-.1.1 0 0l-1.2.8.9.5h.4l1.2-.7-1.4-.8.1.2z"/><path class="st1" d="M57.4 98.6v-.2l-.4.3h-.2v.2l-.8.5.9.5h.4l1.2-.7-.8-.5c-.3 0-.3-.1-.3-.1zm-1.8-.6v-.2l-1.7 1 .9.5h.4l1.2-.7-.8-.6c0 .1 0 0 0 0zm-.6 3.6v-.2l-1.2.7h-.1l-.1-.1v.3l.9.5h.4l1.1-.7-.8-.5c-.1.1-.2.1-.2 0zm-1.3 2.5v-.2l-.6.4H53l-.1-.1v.3l-.5.3.9.5h.4l1.1-.7-1.1-.5c0 .1 0 .1 0 0zm-1.6 1v-.2l-.6.4h-.1l-.1-.1v.3l-.5.3.9.5h.4l1.1-.7-.8-.5c-.3.1-.3 0-.3 0zm-1.6 1v-.2l-.6.4h-.1l-.1-.1v.3l-.5.3.9.5h.4l1.1-.7-.8-.5c-.3.1-.3 0-.3 0zm-1.7 1v-.2l-.6.4h-.1l-.1-.1v.3l-.5.3.9.5h.4l1.1-.7-.8-.5h-.3zm-1.6 1v-.2l-.6.4h-.1l-.1-.1v.3l-.5.3.9.5h.4l1.1-.7-.8-.5h-.3zm-1.6.9v-.2l-.6.4h-.1l-.1-.1v.3l-.5.3.9.5h.4l1.1-.7-.8-.5c-.3.1-.3.1-.3 0zm-1.6 1v-.2l-.6.4h-.1l-.1-.1v.3l-.5.3.9.5h.4l1.1-.7-.8-.5c-.3.1-.3.1-.3 0zm-1.7 1v-.2l-.6.4h-.1l-.1-.1v.3l-.5.3.9.5h.4l1.1-.7-1.1-.5c.1.1 0 0 0 0zm-1.6 1v-.2l-.6.4H40l-.1-.1v.3l-.5.3.9.5h.4l1.1-.7-.8-.5c-.3.1-.3 0-.3 0zm-1.5-4.1v-.2l-.9.5h-.1l-.1-.1v.2l-.2.1.9.5h.4l1.1-.7-.8-.5c-.3.3-.3.2-.3.2zm1.6-1v-.2l-.9.6h-.1l-.1-.1v.3l-.2.1.9.5h.4l1.1-.7-.8-.5c-.2.1-.3.1-.3 0zm1.7-1v-.2l-.9.6h-.1l-.1-.1v.2l-.2.1.9.5h.4l1.1-.7-.8-.5c-.3.2-.3.2-.3.1zm1.6-.9v-.2l-.9.6h-.1l-.1-.1v.3l-.2.1.9.5h.4l1.1-.7-.8-.5h-.3zm1.6-1v-.2l-.9.5h-.1l-.1-.1v.3l-.2.1.9.5h.4l1.1-.7-.8-.5-.3.1zm1.6-1v-.2l-.9.5h-.1l-.1-.1v.3l-.2.1.9.5h.4l1.1-.7-.8-.5c-.2.2-.3.1-.3.1zm1.7-1v-.2l-.9.6H48l-.1-.1v.3l-.2.1.9.5h.4l1.1-.7-.8-.5c-.3.1-.3 0-.3 0zm1.6-1v-.2l-.9.5h-.1l-.1-.1v.3l-.2.1.9.5h.4l1.1-.7-.8-.5c-.3.2-.3.2-.3.1zm1.6-1v-.2l-.9.6-.1-.1v.2l-.2.1.9.5h.4l1.1-.7-.8-.5c-.3.2-.4.2-.4.1zm.3 1.5v-.2l-.6.4h-.1l-.1-.1v.3l-.5.3.9.5h.4l1.1-.7-1.1-.5c0 .1 0 0 0 0zm-.7 2.1v-.2l-1.1.7h-.1l-.1-.1v.3l.9.5h.4l1.1-.7-.8-.5c-.3.1-.3.1-.3 0zm-1.7 1v-.2l-1.1.7h-.1l-.1-.1v.3l.9.5h.4l1.1-.7-.8-.5c-.2.1-.3 0-.3 0zm-1.6 1v-.2l-1.1.7h-.1l-.1-.1v.3l.9.5h.4l1.1-.7-.8-.5c-.3.1-.3 0-.3 0zm-1.6 1v-.2l-1.1.7h-.1l-.1-.1v.3l.9.5h.4l1.1-.7-.8-.5h-.3zm-1.6 1v-.2l-1.1.7h-.1l-.1-.1v.3l.9.5h.4l1.1-.7-.8-.5h-.3zm-1.7.9v-.2l-1.1.7H42v.3l.9.5h.4l1.1-.7-.8-.5c.1 0 0 0 0-.1zm-1.6 1v-.2l-1.1.7h-.1l-.1-.1v.3l.9.5h.4l1.1-.7-1.1-.5c0 .1 0 .1 0 0zm-.9-1.1v-.2l-.6.4h-.1l-.1-.1v.3l-.5.3.9.5h.4l.9-.6-.8-.5-.1-.1zm1.7-1v-.2l-.6.4h-.1l-.1-.1v.3l-.5.3.9.5h.4l1.1-.7-1.1-.5c0 .1 0 0 0 0zm1.6-1v-.2l-.6.4h-.1l-.1-.1v.3l-.5.3.9.5h.4l1.1-.7-.8-.5c-.3.1-.3.1-.3 0zm1.6-1v-.2l-.6.4h-.1l-.1-.1v.3l-.5.3.9.5h.4l1.1-.7-1.1-.5c0 .1 0 .1 0 0zm1.6-.9v-.2l-.6.4h-.1l-.1-.1v.3l-.5.3.9.5h.4l1.1-.7-1.1-.5c.1 0 0 0 0 0zm1.7-1v-.2l-.6.4h-.1l-.1-.1v.3l-.5.3.9.5h.4l1.1-.7-.8-.5h-.3zm1.6-1v-.2l-.6.4h-.1l-.1-.1v.3l-.5.3.9.5h.4l1.1-.7-.8-.5c-.3.1-.3 0-.3 0zm-11.4 6.9v-.2l-.6.4h-.1l-.1-.1v.3l-.5.3.9.5h.4l1.1-.7-.8-.5c-.3.1-.3 0-.3 0zm.9 1.1v-.2l-1.1.7h-.1l-.1-.1v.3l.9.5h.4l1.1-.7-.8-.5c-.3.1-.3 0-.3 0zm13-7.9v-.2l-1.1.7h-.1l-.1-.1v.3l.9.5h.4l1.1-.7-.8-.5c-.3.1-.3.1-.3 0zm-1.8-3.9v-.2l-.6.4h-.1l-.1-.1v.3l-.8.4.9.5h.4l1.1-.7h.1l-.8-.5c-.1 0-.1 0-.1-.1zm-1.6 1v-.2l-.6.4h-.1l-.1-.1v.3l-.5.3.9.5h.4l1.1-.7-1.1-.5c0 .1 0 .1 0 0zm-1.7 1v-.2l-.6.4h-.1l-.1-.1v.3l-.5.3.9.5h.4l1.1-.7-1.1-.5c.1.1 0 .1 0 0zm-1.6 1v-.2l-.6.4H46l-.1-.1v.3l-.5.3.9.5h.4l1.1-.7-.8-.5c-.3.1-.3 0-.3 0zm-1.6 1v-.2l-.6.4h-.1l-.1-.1v.3l-.5.3.9.5h.4l1.1-.7-1.1-.5c0 .1 0 0 0 0zm-1.6 1v-.2l-.6.4h-.1l-.1-.1v.3l-.5.3.9.5h.4l1.1-.7-.8-.5h-.3zm-1.7.9v-.2l-.6.4h-.1l-.1-.1v.3l-.5.3.9.5h.4l1.1-.7-1.1-.5c.1.1 0 .1 0 0zm-1.6 1v-.2l-.6.4h-.1l-.1-.1v.3l-.5.3.9.5h.4l1.1-.7-.8-.5c-.3.1-.3.1-.3 0zm-1.6 1v-.2l-.6.4h-.1l-.1-.1v.3l-.5.3.9.5h.4l1.1-.7-.8-.5c-.3.1-.3.1-.3 0zm-1.6 1v-.2l-.6.4h-.1l-.1-.1v.3l-.5.3.9.5h.4l1.1-.7-1.1-.5c0 .1 0 0 0 0zm-3.3 2v-.2l-.6.4H33l-.1-.1v.3l-.5.3.9.5h.4l1.1-.7-.8-.5h-.3zm1.6-1v-.2l-.6.4h-.1l-.1-.1v.3l-.5.3.9.5h.4l1.1-.7-.8-.5c-.2.1-.3 0-.3 0zm2.3.3v-.2l-.9.5h-.1l-.1-.1v.3l-.2.1.9.5h.4l1.1-.7-.8-.5c-.3.2-.3.1-.3.1zm.3 1.5v-.2l-.6.4h-.1l-.1-.1v.3l-.5.3.9.5h.4l1.1-.7-1.1-.5zm-1.6.9v-.2l-1.9 1.1.9.5h.4l1.4-.9-.8-.5c0 .1 0 .1 0 0zm2.5.2v-.2l-1.1.7h-.1l-.1-.1v.3l-1.3.8.9.5h.4L40 112l-.8-.5c-.4.1-.4 0-.4 0zm.3 1.5v-.2l-1.6 1 .9.5h.4l1.1-.7-.8-.6zm.9 1.1v-.2l-1.1.7h-.1s0 .1.1.1l.9.5h.4l.9-.5-.8-.5c-.3 0-.3-.1-.3-.1zm1.6-1v-.2l-1.1.7h-.1l-.1-.1v.3l.9.5h.4l1.1-.7-1.1-.5c0 .1 0 .1 0 0zm1.6-1v-.2l-1.1.7H42l-.1-.1v.3l.9.5h.4l1.1-.7-.8-.5c-.3.1-.3.1-.3 0zm1.6-.9v-.2l-1.1.7h-.1l-.1-.1v.2l.9.5h.4l1.1-.7-.8-.5c-.2.1-.3.1-.3.1zm1.7-1v-.2l-1.1.7h-.1l-.1-.1v.3l.9.5h.4l1.1-.7-1.1-.5zm8.1-4.9v-.2l-1.1.7h-.1l-.1-.1v.3l-1.1.7h-.1l-.1-.1v.3l-1.1.7h-.1l-.1-.1v.3l-1.1.7h-.1l-.1-.1v.3l-1.1.7-.1-.1v.3l.9.5h.4l7.6-4.6-.8-.5-1.7.3z"/><path class="st1" d="M56.2 104.3v-.2l-1.2.7h-.1l-.1-.1v.3l.9.5h.4l1.1-.7-1-.5zm1.6-1v-.2l-.4.3h-.1l-.1-.1v.3l-.7.4.9.5h.4l1.1-.7-.8-.5c-.2.1-.3 0-.3 0z"/><path class="st1" d="M57.3 102v-.2l-.9.6h-.1l-.1-.1v.3l-1.1.7H55l-.1-.1v.2l-.5.3.9.5h.4l1.9-1.1-.8-.5-.1-.1v-.3s0 .1.1.1l.9.5h.4l.7-.4-.8-.4h-.7zm1.1-.7v-.2h-.1l-.1-.1v.3l-.5.3.9.5h.4l.6-.4-.8-.5c-.3.1-.4.1-.4.1zm1.8-1.1v-.2H60l-.1-.1v.3l-1.1.7.9.5h.4l1.3-.8-1.2-.4c0 .1 0 0 0 0z"/><path class="st4" d="M54.4 95.2c-.1-.1-.2-.1-.3 0l-1.1.7c-.1.1-.1.1 0 .2l.9.5c.1.1.2.1.3 0l1.1-.7c.1-.1.1-.1 0-.2l-.9-.5zm-1.6 1c-.1-.1-.2-.1-.3 0l-1.1.7c-.1.1-.1.1 0 .2l.9.5c.1.1.2.1.3 0l1.1-.7c.1-.1.1-.1 0-.2l-.9-.5zm-1.6.9c-.1-.1-.2-.1-.3 0l-1.1.7c-.1.1-.1.1 0 .2l.9.5c.1.1.3.1.3 0l1.1-.7c.1-.1.1-.1 0-.2l-.9-.5zm-1.6 1c-.1-.1-.2-.1-.3 0l-1.1.7c-.2.1-.2.2-.1.2l.9.5c.1.1.2.1.3 0l1.1-.7c.1-.1.1-.1 0-.2l-.8-.5zm-1.7 1c-.1-.1-.2-.1-.3 0l-1.1.7c-.1.1-.1.1 0 .2l.9.5c.1.1.2.1.3 0l1.1-.7c.1-.1.1-.1 0-.2l-.9-.5zm-1.6 1c-.1-.1-.2-.1-.3 0l-1.1.7c-.1.1-.1.1 0 .2l.9.5c.1.1.2.1.3 0l1.1-.7c.1-.1.1-.1 0-.2l-.9-.5zm-1.6 1c-.1-.1-.2-.1-.3 0l-1.1.7c-.1.1-.1.1 0 .2l.9.5c.1.1.2.1.3 0l1.1-.7c.1-.1.1-.1 0-.2l-.9-.5zm-1.6 1c-.1-.1-.2-.1-.3 0l-1.1.7c-.1.1-.1.1 0 .2l.9.5c.1.1.2.1.3 0l1.1-.7c.1-.1.1-.1 0-.2l-.9-.5zm-1.7.9c-.1-.1-.2-.1-.3 0l-1.1.7c-.1.1-.1.1 0 .2l.9.5c.1.1.2.1.3 0l1.1-.7c.1-.1.1-.1 0-.2l-.9-.5zm-1.6 1c-.1-.1-.2-.1-.3 0l-1.1.7c-.1.1-.1.1 0 .2l.9.5c.1.1.2.1.3 0l1.1-.7c.1-.1.1-.1 0-.2l-.9-.5zm-1.6 1c-.1-.1-.2-.1-.3 0l-1.1.7c-.1.1-.1.1 0 .2l.9.5c.1.1.2.1.3 0l1.1-.7c.1-.1.1-.1 0-.2l-.9-.5zm-1.6 1c-.1-.1-.2-.1-.3 0l-1.1.7c-.1.1-.1.1 0 .2l.9.5c.1.1.2.1.3 0l1.1-.7c.1-.1.1-.1 0-.2l-.9-.5zm-1.7 1c-.1-.1-.2-.1-.3 0l-1.1.7c-.1.1-.1.1 0 .2l.9.5c.1.1.2.1.3 0l1.1-.7c.1-.1.1-.1 0-.2l-.9-.5zm-1.6 1c-.1-.1-.2-.1-.3 0l-1.1.7c-.1.1-.1.1 0 .2l.9.5c.1.1.2.1.3 0l1.1-.7c.1-.1.1-.1 0-.2l-.9-.5zm-1.6.9c-.1-.1-.2-.1-.3 0l-1.1.7c-.1.1-.1.1 0 .2l.9.5c.1.1.2.1.3 0l1.1-.7c.1-.1.1-.1 0-.2l-.9-.5zM55.8 96c-.1-.1-.2-.1-.3 0l-3.8 2.3c-.1.1-.1.1 0 .2l.9.5c.1.1.2.1.3 0l3.8-2.3c.1-.1.1-.1 0-.2l-.9-.5zm-4.3 2.6c-.1-.1-.2-.1-.3 0l-1.2.7c-.1.1-.1.1 0 .2l.9.5c.1.1.2.1.3 0l1.1-.7c.1-.1.1-.1 0-.2l-.8-.5zm-1.6 1c-.1-.1-.2-.1-.3 0l-1.1.7c-.1.1-.1.1 0 .2l.9.5c.1.1.2.1.3 0l1.1-.7c.1-.1.1-.1 0-.2l-.9-.5zm-1.7 1c-.1-.1-.2-.1-.3 0l-1.1.7c-.1.1-.1.1 0 .2l.9.5c.1.1.2.1.3 0l1.1-.7c.1-.1.1-.1 0-.2l-.9-.5zm-1.6 1c-.1-.1-.2-.1-.3 0l-1.1.7c-.1.1-.1.1 0 .2l.9.5c.1.1.2.1.3 0l1.1-.7c.1-.1.1-.1 0-.2l-.9-.5zm-1.6 1c-.1-.1-.2-.1-.3 0l-1.1.7c-.1.1-.1.1 0 .2l.9.5c.1.1.2.1.3 0l1.1-.7c.1-.1.1-.1 0-.2l-.9-.5zm-1.6.9c-.1-.1-.2-.1-.3 0l-1.1.7c-.1.1-.1.1 0 .2l.9.5c.1.1.2.1.3 0l1.1-.7c.1-.1.1-.1 0-.2l-.9-.5zm-1.7 1c-.1-.1-.2-.1-.3 0l-1.1.7c-.1.1-.1.1 0 .2l.9.5c.1.1.2.1.3 0l1.1-.7c.1-.1.1-.1 0-.2l-.9-.5zm-1.6 1c-.1-.1-.2-.1-.3 0l-1.1.7c-.1.1-.1.1 0 .2l.9.5c.1.1.2.1.3 0l1.1-.7c.1-.1.1-.1 0-.2l-.9-.5zm-1.6 1c-.1-.1-.2-.1-.3 0l-1.1.7c-.1.1-.1.1 0 .2l.9.5c.1.1.2.1.3 0l1.1-.7c.1-.1.1-.1 0-.2l-.9-.5zm-1.6 1c-.1-.1-.2-.1-.3 0l-1.1.7c-.1.1-.1.1 0 .2l.9.5c.1.1.2.1.3 0l1.1-.7c.1-.1.1-.1 0-.2l-.9-.5zm-1.7 1c-.1-.1-.2-.1-.3 0l-1.1.7c-.1.1-.1.1 0 .2l.9.5c.1.1.2.1.3 0l1.1-.7c.1-.1.1-.1 0-.2l-.9-.5zm-1.6.9c-.1-.1-.2-.1-.3 0l-1.1.7c-.1.1-.1.1 0 .2l.9.5c.1.1.2.1.3 0l1.1-.7c.1-.1.1-.1 0-.2l-.9-.5zm23.6-12.6c-.1-.1-.2-.1-.3 0l-1.2.7c-.1.1-.1.1 0 .2l.9.5c.1.1.2.1.3 0l1.2-.7c.1-.1.1-.1 0-.2l-.9-.5zm-1.7 1c-.1-.1-.2-.1-.3 0l-1.2.8c-.1.1-.1.1 0 .2l.9.5c.1.1.2.1.3 0l1.2-.7c.1-.1.1-.1 0-.2l-.9-.6zm3.1-.2c-.1-.1-.2-.1-.3 0l-.9.5c-.1.1-.1.1 0 .2l2.3 1.3c.1.1.2.1.3 0l.9-.5c.1-.1.1-.1 0-.2l-2.3-1.3zm-1.3.9c-.1-.1-.2-.1-.3 0l-1.2.7c-.1.1-.1.1 0 .2l.9.5c.1.1.2.1.3 0l1.2-.7c.1-.1.1-.1 0-.2l-.9-.5zm-5.2 1.4c-.1-.1-.2-.1-.3 0l-1.1.7c-.1.1-.1.1 0 .2l.9.5c.1.1.2.1.3 0l1.1-.7c.1-.1.1-.1 0-.2l-.9-.5z"/><path class="st4" d="M55.5 99.9l-.3-.2-1.4-.8c-.1-.1-.2-.1-.3 0l-1.1.7c-.1.1-.1.1 0 .2l1.2.7-.9.6c-.1.1-.1.1 0 .2l.9.5c.1.1.2.1.3 0l2.2-1.4c.1-.1.1-.1 0-.2l-.6-.3zm-5 1c-.1-.1-.2-.1-.3 0l-1.1.7c-.1.1-.1.1 0 .2l.9.5c.1.1.2.1.3 0l1.1-.7c.1-.1.1-.1 0-.2l-.9-.5zm-1.6 1c-.1-.1-.2-.1-.3 0l-1.1.7c-.1.1-.1.1 0 .2l.9.5c.1.1.2.1.3 0l1.1-.7c.1-.1.1-.1 0-.2l-.9-.5zm-1.7 1c-.1-.1-.2-.1-.3 0l-1.1.7c-.1.1-.1.1 0 .2l.9.5c.1.1.2.1.3 0l1.1-.7c.1-.1.1-.1 0-.2l-.9-.5zm-1.6.9c-.1-.1-.2-.1-.3 0l-1.1.7c-.1.1-.1.1 0 .2l.9.5c.1.1.2.1.3 0l1.1-.7c.1-.1.1-.1 0-.2l-.9-.5zm-1.6 1c-.1-.1-.2-.1-.3 0l-1.1.7c-.1.1-.1.1 0 .2l.9.5c.1.1.2.1.3 0l1.1-.7c.1-.1.1-.1 0-.2l-.9-.5zm-1.6 1c-.1-.1-.2-.1-.3 0l-1.1.7c-.1.1-.1.1 0 .2l.9.5c.1.1.2.1.3 0l1.1-.7c.1-.1.1-.1 0-.2l-.9-.5zm-1.7 1c-.1-.1-.2-.1-.3 0l-1.1.7c-.1.1-.1.1 0 .2l.9.5c.1.1.2.1.3 0l1.1-.7c.1-.1.1-.1 0-.2l-.9-.5zm-1.6 1c-.1-.1-.2-.1-.3 0l-1.1.7c-.1.1-.1.1 0 .2l.9.5c.1.1.2.1.3 0l1.1-.7c.1-.1.1-.1 0-.2l-.9-.5zm-1.6 1c-.1-.1-.2-.1-.3 0l-1.1.7c-.1.1-.1.1 0 .2l.9.5c.1.1.2.1.3 0l1.1-.7c.1-.1.1-.1 0-.2l-.9-.5zm-1.7 1c-.1-.1-.2-.1-.3 0l-2.5 1.5c-.1.1-.1.1 0 .2l.9.5c.1.1.2.1.3 0l2.5-1.5c.1-.1.1-.1 0-.2l-.9-.5zm16.6-8.4c-.1-.1-.2-.1-.3 0l-1.1.7c-.1.1-.1.1 0 .2l.9.5c.1.1.2.1.3 0l1.1-.7c.1-.1.1-.1 0-.2l-.9-.5zm-1.6 1c-.1-.1-.2-.1-.3 0l-1.1.7c-.1.1-.1.1 0 .2l.9.5c.1.1.2.1.3 0l1.1-.7c.1-.1.1-.1 0-.2l-.9-.5zm-1.6.9c-.1-.1-.2-.1-.3 0l-1.1.7c-.1.1-.1.1 0 .2l.9.5c.1.1.2.1.3 0l1.1-.7c.1-.1.1-.1 0-.2l-.9-.5zm-1.7 1c-.1-.1-.2-.1-.3 0l-1.1.7c-.1.1-.1.1 0 .2l.9.5c.1.1.2.1.3 0l1.1-.7c.1-.1.1-.1 0-.2l-.9-.5zm-1.6 1c-.1-.1-.2-.1-.3 0l-1.1.7c-.1.1-.1.1 0 .2l.9.5c.1.1.2.1.3 0l1.1-.7c.1-.1.1-.1 0-.2l-.9-.5zm-1.6 1c-.1-.1-.2-.1-.3 0l-1.1.7c-.1.1-.1.1 0 .2l.9.5c.1.1.2.1.3 0l1.1-.7c.1-.1.1-.1 0-.2l-.9-.5zm-1.6 1c-.1-.1-.2-.1-.3 0l-1.1.7c-.1.1-.1.1 0 .2l.9.5c.1.1.2.1.3 0l1.1-.7c.1-.1.1-.1 0-.2l-.9-.5zm-1.7 1c-.1-.1-.2-.1-.3 0l-1.1.7c-.1.1-.1.1 0 .2l.9.5c.1.1.2.1.3 0l1.2-.7c.1-.1.1-.1 0-.2l-1-.5zm-1.6.9c-.1-.1-.2-.1-.3 0l-1.1.7c-.1.1-.1.1 0 .2l.9.5c.1.1.2.1.3 0l1.1-.7c.1-.1.1-.1 0-.2l-.9-.5zm-1.6 1c-.1-.1-.2-.1-.3 0l-1.1.7c-.1.1-.1.1 0 .2l.9.5c.1.1.2.1.3 0l1.1-.7c.1-.1.1-.1 0-.2l-.9-.5zm-1.6 1c-.1-.1-.2-.1-.3 0l-1.4.9c-.1.1-.1.1 0 .2l.9.5c.1.1.2.1.3 0l1.4-.9c.1-.1.1-.1 0-.2l-.9-.5zm22.5-11.9c-.1-.1-.2-.1-.3 0l-1.2.7c-.1.1-.1.1 0 .2l.9.5c.1.1.2.1.3 0l1.2-.7c.1-.1.1-.1 0-.2l-.9-.5zm-1.8 1c-.1-.1-.2-.1-.3 0l-1.5.9c-.1.1-.1.1 0 .2l.9.6c.1.1.2.1.3 0l1.5-.9c.1-.1.1-.1 0-.2l-.9-.6zm-2 1.2c-.1-.1-.2-.1-.3 0l-1.1.7c-.1.1-.1.1 0 .2l.9.5c.1.1.2.1.3 0l1.1-.7c.1-.1.1-.1 0-.2l-.9-.5zm-1.6 1c-.1-.1-.2-.1-.3 0l-1.1.7c-.1.1-.1.1 0 .2l.9.5c.1.1.2.1.3 0l1.1-.7c.1-.1.1-.1 0-.2l-.9-.5zm-1.6 1c-.1-.1-.2-.1-.3 0l-1.1.7c-.1.1-.1.1 0 .2l.9.5c.1.1.2.1.3 0l1.1-.7c.1-.1.1-.1 0-.2l-.9-.5zm-1.7 1c-.1-.1-.3-.1-.3 0l-1.1.7c-.1.1-.1.1 0 .2l.9.5c.1.1.2.1.3 0l1.1-.7c.1-.1.1-.1 0-.2l-.9-.5zm-1.6 1c-.1-.1-.2-.1-.3 0l-1.1.7c-.1.1-.1.1 0 .2l.9.5c.1.1.2.1.3 0l1.1-.7c.1-.1.1-.1 0-.2l-.9-.5zm-1.6.9c-.1-.1-.2-.1-.3 0l-1.1.7c-.1.1-.1.1 0 .2l.9.5c.1.1.2.1.3 0l1.1-.7c.1-.1.1-.1 0-.2l-.9-.5zm-1.6 1c-.1-.1-.2-.1-.3 0l-1.1.7c-.1.1-.1.1 0 .2l.9.5c.1.1.2.1.3 0l1.1-.7c.1-.1.1-.1 0-.2l-.9-.5zm-1.7 1c-.1-.1-.2-.1-.3 0l-1.1.7c-.1.1-.1.1 0 .2l.9.5c.1.1.2.1.3 0l1.1-.7c.1-.1.1-.1 0-.2l-.9-.5zm-1.6 1c-.1-.1-.2-.1-.3 0l-1.1.7c-.1.1-.1.1 0 .2l.9.5c.1.1.2.1.3 0l1.1-.7c.1-.1.1-.1 0-.2l-.9-.5zm-1.6 1c-.1-.1-.2-.1-.3 0l-1.1.7c-.1.1-.1.1 0 .2l.9.5c.1.1.2.1.3 0l1.1-.7c.1-.1.1-.1 0-.2l-.9-.5zm-1.7 1c-.1-.1-.2-.1-.3 0l-2.5 1.5c-.1.1-.1.1 0 .2l.9.5c.1.1.2.1.3 0l2.5-1.5c.1-.1.1-.1 0-.2l-.9-.5zm22.8-12.1c-.1-.1-.2-.1-.3 0l-.9.5c-.1.1-.1.1 0 .2l2.3 1.3c.1.1.2.1.3 0l.9-.5c.1-.1.1-.1 0-.2l-2.3-1.3zm-1.3.8c-.1-.1-.2-.1-.3 0l-1.3.8c-.1.1-.1.1 0 .2l.9.5c.1.1.2.1.3 0l1.3-.8c.1-.1.1-.1 0-.2l-.9-.5zm-1.8 1c-.1-.1-.2-.1-.3 0l-.6.4c-.1.1-.1.1 0 .2l.9.5c.1.1.2.1.3 0l.6-.4c.1-.1.1-.1 0-.2l-.9-.5zm-1.2.8c-.1-.1-.2-.1-.3 0l-.7.4c-.1.1-.1.1 0 .2l.9.5c.1.1.2.1.3 0l.7-.4c.1-.1.1-.1 0-.2l-.9-.5zm-1.1.7c-.1-.1-.2-.1-.3 0l-1.9 1.1c-.1.1-.1.1 0 .2l.9.5c.1.1.2.1.3 0l1.9-1.1c.1-.1.1-.1 0-.2l-.9-.5zm-2.4 1.4c-.1-.1-.2-.1-.3 0l-1.1.7c-.1.1-.1.1 0 .2l.9.5c.1.1.2.1.3 0l1.1-.7c.1-.1.1-.1 0-.2l-.9-.5zm-1.6 1c-.1-.1-.2-.1-.3 0l-1.1.7c-.1.1-.1.1 0 .2l.9.5c.1.1.2.1.3 0l1.1-.7c.1-.1.1-.1 0-.2l-.9-.5zm-1.6 1c-.1-.1-.2-.1-.3 0l-1.1.7c-.1.1-.1.1 0 .2l.9.5c.1.1.2.1.3 0l1.1-.7c.1-.1.1-.1 0-.2l-.9-.5zm-1.7.9c-.1-.1-.2-.1-.3 0l-1.1.7c-.1.1-.1.1 0 .2l.9.5c.1.1.2.1.3 0l1.1-.7c.1-.1.1-.1 0-.2l-.9-.5zm-1.6 1c-.1-.1-.2-.1-.3 0l-1.1.7c-.1.1-.1.1 0 .2l.9.5c.1.1.2.1.3 0l1.1-.7c.1-.1.1-.1 0-.2l-.9-.5zm-1.6 1c-.1-.1-.2-.1-.3 0l-1.1.7c-.1.1-.1.1 0 .2l.9.5c.1.1.2.1.3 0l1.1-.7c.1-.1.1-.1 0-.2l-.9-.5zm-1.6 1c-.1-.1-.2-.1-.3 0l-1.1.7c-.1.1-.1.1 0 .2l.9.5c.1.1.2.1.3 0l1.1-.7c.1-.1.1-.1 0-.2l-.9-.5zm-1.7 1c-.1-.1-.2-.1-.3 0l-1.1.7c-.1.1-.1.1 0 .2l.9.5c.1.1.2.1.3 0l1.1-.7c.1-.1.1-.1 0-.2l-.9-.5zm-1.6 1c-.1-.1-.2-.1-.3 0l-1.1.7c-.1.1-.1.1 0 .2l.9.5c.1.1.2.1.3 0l1.1-.7c.1-.1.1-.1 0-.2l-.9-.5zm-1.6.9c-.1-.1-.3-.1-.3 0l-1.1.7c-.1.1-.1.1 0 .2l.9.5c.1.1.2.1.3 0l1.1-.7c.1-.1.1-.1 0-.2l-.9-.5zm22-11.6c-.1-.1-.2-.1-.3 0l-1.1.7c-.1.1-.1.1 0 .2l.9.5c.1.1.2.1.3 0l1.1-.7c.1-.1.1-.1 0-.2l-.9-.5zm-1.6 1c-.1-.1-.2-.1-.3 0l-1.1.7c-.1.1-.1.1 0 .2l.9.5c.1.1.2.1.3 0l1.1-.7c.1-.1.1-.1 0-.2l-.9-.5zm-1.7 1c-.1-.1-.2-.1-.3 0l-1.1.7c-.1.1-.1.1 0 .2l.9.5c.1.1.2.1.3 0l1.1-.7c.1-.1.1-.1 0-.2l-.9-.5zm-1.6.9c-.1-.1-.2-.1-.3 0l-1.1.7c-.1.1-.1.1 0 .2l.9.5c.1.1.2.1.3 0l1.1-.7c.1-.1.1-.1 0-.2l-.9-.5zm-1.6 1c-.1-.1-.2-.1-.3 0l-7.6 4.6c-.1.1-.1.1 0 .2l.9.5c.1.1.2.1.3 0l7.6-4.6c.1-.1.1-.1 0-.2l-.9-.5zm-8.1 4.9c-.1-.1-.2-.1-.3 0l-1.1.7c-.1.1-.1.1 0 .2l.9.5c.1.1.2.1.3 0l1.1-.7c.1-.1.1-.1 0-.2l-.9-.5zm-1.7 1c-.1-.1-.2-.1-.3 0l-1.1.7c-.1.1-.1.1 0 .2l.9.5c.1.1.2.1.3 0l1.1-.7c.1-.1.1-.1 0-.2l-.9-.5zm-1.6 1c-.1-.1-.2-.1-.3 0l-1.1.7c-.1.1-.1.1 0 .2l.9.5c.1.1.2.1.3 0l1.1-.7c.1-.1.1-.1 0-.2l-.9-.5zm-1.6 1c-.1-.1-.2-.1-.3 0l-1.1.7c-.1.1-.1.1 0 .2l.9.5c.1.1.2.1.3 0l1.1-.7c.1-.1.1-.1 0-.2l-.9-.5zm-1.6 1c-.1-.1-.2-.1-.3 0l-.9.5c-.1.1-.1.1 0 .2l.9.5c.1.1.2.1.3 0l.9-.5c.1-.1.1-.1 0-.2l-.9-.5z"/><path fill="#827c7b" d="M51 72.7l.7 16.8 1.1.6-.6-16.8z"/><path fill="#d2c8c6" d="M26.6 105.5l1.2.7 24.3-14.7-1.1-.6z"/><path fill="#1e5d9d" d="M25.9 86.8l1.1.7 24.3-14.6-1.1-.7z"/><path class="st4" d="M39.1 79.1c-.1.1-.2.3-.2.4 0 .2.1.2.3.2.1-.1.2-.3.2-.5s-.1-.2-.3-.1z"/><path d="M39 79.6l.1.1-.1-.1zm.3-.6l-.5-.3-.6-.4s-.1 0-.1.1v.1c0 .1 0 .1.1.2l.9.5.3.1-.4.3.1.1s.1 0 .1-.1v-.1c.2-.4.2-.4.1-.5z" fill="#132146"/><path class="st10" d="M52.2 70.7L26 86.4c-.4.2-.7.8-.6 1.2l.9 21.2c0 .4.3.6.7.4l26.2-15.7c.4-.2.7-.8.6-1.2l-.9-21.2c0-.5-.3-.7-.7-.4zm-13 9c-.1.1-.3 0-.3-.2s.1-.4.2-.4c.1-.1.3 0 .3.1 0 .2-.1.4-.2.5z"/><path class="st1" d="M51.3 72.9L27 87.5c-.4.3-.8.9-.7 1.4l.7 16.8c0 .5.4.7.8.5l24.3-14.6c.4-.3.8-.9.8-1.4l-.7-16.8c-.1-.6-.4-.8-.9-.5z"/><path class="st0" d="M51.5 69.9h-.4s-.1 0-.1.1L24.9 85.7l-.1.1-.1.1-.1.1-.1.1s0 .1-.1.1v.7l.9 21.2c0 .2.1.4.2.5l1.1.7c-.1-.1-.2-.2-.2-.5l-.9-21.2v-.4c0-.1 0-.1.1-.2 0-.1 0-.1.1-.2 0-.1.1-.1.1-.2l.1-.1.1-.1.1-.1 26.2-15.7.1-.1h.3l-1.2-.6c.1 0 .1 0 0 0z"/><path d="M81.5 74.1c-2.3.2-4.1 1.1-4.1 1.1s-3.3 2.2-8.9 5.3c-3.7 2-8.5 10.2-8.5 14.7s3.9 5.5 3.9 5.5l1.5 12.9c9 8.5 20.8-3.3 20.8-3.3 0-7.6 9.4-26.9.6-34.7-1.6-1.4-3.6-1.6-5.3-1.5z" fill="#d1e7f4"/><path class="st4" d="M77.3 75.2s-4.6 2.3-9.8 6c.3.2 3.7 3.2 7.7 3.2 3.7 0 6.3-2.3 7.1-5.3.4-1.7.1-4-.9-4.9-2.2.2-4.1 1-4.1 1z"/><path class="st2" d="M66.8 85.5l-.1.1c-1.7 1.9-1.9 7.5-1.3 13 .7 6.2 1.5 13.8 1.5 13.8l-20.3-3.7-4.2 4.1c.2.1 18.4 6.4 20.5 6.7.3 0 .6.1.8.1.5 0 1 .1 1.5.1h3.5c10.3-.2 6.5-23.2 5.4-30-1-6.9-6-5.5-7.3-4.2z"/><path class="st4" d="M66.8 85.5c-1.3 1.3-2.3 3.7-2.5 5.8.7-1.7 3.2-4 5.6-4 2.1 0 4.3 1.3 5.1 2.6-1.2-6.8-6.4-6.3-8.2-4.4z"/><path class="st2" d="M78.8 70.5l-8.1 3.8s1.2 3.4-1.7 5.9c0 0 2.3 1.7 5.5 1.7 4.7 0 7.8-4.5 5.7-6.7-1.1-1.2-1.4-4.7-1.4-4.7z"/><path class="st2" d="M71.9 47.8c-5.7 0-10.2 2.5-11.1 8-.3 2 .2 3.8-.2 6.4-.7 4.4 2.8 10.6 6.6 13.6.6.5 1.3.7 2 .7 1.4.1 13.8-6.8 13.8-11.3v-6.4c-.1-6-5-11-11.1-11z"/><path d="M73.6 42.7c-7.2 0-13 6-13 8.3 0 5 4.6 5.6 6.9 7.1 2.6 1.7 3 11.3-1.1 18.5-3.2 5.6-7.1 7.6-6.3 18.3C61.5 85.7 67.5 81 70.9 81c4.1 0 7.5 8.8 7.5 26.9 0 3.5 10.9 4.3 10.9-8.6 0-9 2.2-33.9-1.4-45.6-2.3-7.8-10-11-14.3-11z" fill="#713d23"/><path class="st2" d="M45 103.6c-.8-.8-2-1-2-1l-3.9-.2c-.2.6.4 1.5 1.2 1.6.3 0 2.5.6 2.5.6s.9 1.4.7 1.9c0 .1-1.6.3-2.4-.1-1.4-.6-4-2.4-4-2.4s-1.8-1.3-1.5 1.1c.3 2.4-.2 2.9 1 4.7 1.2 1.9 5.7 3.2 5.8 3.1 0 0 .7.1 1.2.2l4.6-4-1.1-1.1c.2 0-1.3-3.6-2.1-4.4z"/><path class="st0" d="M529.7 507.4l-244.6-138c-5.2-3-10.7-3.7-14.4-3.7-3.6 0-9.1.6-14.3 3.6L80.9 467.1c-6.8 3.8-10.9 10.3-11 17.5-.1 7.1 3.8 13.6 10.4 17.4L327 645.7c5.2 3 10.7 3.7 14.4 3.7 3.6 0 9-.6 14.3-3.5l167.3-94c4.1-2.3 6.7-6.7 6.7-11.4v-33.1z"/><path class="st6" d="M277.1 158.9l5.9 211.6L523.8 518c3.7-2.3 5.9-6.3 5.9-10.6V293.7c0-5.5-2.9-10.6-7.7-13.4L296.3 148.7c-5.9-3.4-19.2.6-19.2 10.2zm14.8 371.9l-42.3-24.7c-3.2-1.8-8.4-1.8-11.8 0l-34.3 19.1c-3.3 1.9-3.5 4.9-.3 6.7l42.3 24.7c3.2 1.8 8.4 1.8 11.8 0l34.3-19.1c3.3-1.9 3.5-4.9.3-6.7z"/><path class="st10" d="M523.8 518L277.1 374.3c-3.5-2-9.3-2-13 0L88.6 472.1c-3.7 2.1-3.8 5.4-.3 7.4L335 623.2c3.5 2 9.3 2 13 0l175.5-97.8c3.7-2 3.8-5.4.3-7.4zm-232.2 19.5l-34.3 19.1c-3.3 1.9-8.6 1.9-11.8 0l-42.3-24.7c-3.2-1.8-3-4.8.3-6.7l34.3-19.1c3.3-1.9 8.6-1.9 11.8 0l42.3 24.7c3.2 1.8 3 4.8-.3 6.7zm107.9 40L170 443.8l91.9-51.2 229.5 133.7-91.9 51.2z"/><path class="st6" d="M523.5 525.4L348 623.2c-.4.2-.9.5-1.4.7-.1 0-.2 0-.2.1-.4.1-.9.3-1.3.4-.1 0-.2 0-.3.1l-1.5.3h-.2c-.5.1-1 .1-1.5.1h-.2c-.5 0-1 0-1.5-.1h-.3c-.4 0-.7-.1-1.1-.2-.3-.1-.6-.1-.9-.2-.2-.1-.5-.1-.7-.2-.6-.2-1.2-.5-1.8-.8L88.3 479.5c-.2-.1-.4-.3-.6-.4-.2-.2-.4-.3-.6-.5-.3-.3-.5-.5-.7-.8l-.1-.1c-.2-.3-.3-.6-.4-.8v12.8s.4.7 1.3 1.3c.2.1.4.3.6.4 0 0 .1 0 .1.1l246.7 143.7c.5.3 1.1.6 1.8.8.1 0 .1.1.2.1.2 0 .3.1.5.1.3.1.6.2.9.2.1 0 .2.1.3.1.3 0 .5.1.8.1h.4c.3 0 .7.1 1 .1h.9c.3 0 .6 0 .9-.1h.8c.3 0 .6-.1.9-.2.1 0 .2 0 .2-.1.1 0 .2 0 .3-.1.2 0 .3-.1.5-.1.3-.1.6-.2.8-.3.1 0 .2 0 .2-.1h.1c.5-.2.9-.4 1.4-.6L523 537.4c1.9-1 2.8-2.4 2.9-3.7l.4-12c0 1.3-1 2.7-2.8 3.7z"/><path class="st6" d="M164.8 440.7l238.8 139.1 95.6-53.2-238.8-139.2z"/><path class="st1" d="M491.9 523l-8.7 4.8c-.2.1-.5.2-.8.3-.3.1-.6.1-.8.1-.3 0-.5 0-.8-.1h-.1c-.3-.1-.5-.2-.7-.3l-10.8-6.3c-.2-.1-.3-.2-.4-.4l7.5-4.2c.4-.3.7-.6.7-.9l.1-3c0 .3-.2.7-.7.9l-8.7 4.8c-.2.1-.5.2-.7.3-.3.1-.6.1-.8.1-.3 0-.6 0-.8-.1h-.1c-.3-.1-.5-.2-.7-.3l-10.8-6.3c-.2-.1-.3-.2-.4-.4l7.5-4.2c.4-.3.7-.6.7-.9l.1-3c0 .3-.2.7-.7.9l-8.7 4.8c-.2.1-.5.2-.7.3-.3.1-.6.1-.9.1-.3 0-.6 0-.8-.1h-.1c-.3-.1-.5-.1-.7-.3l-10.8-6.3c-.2-.1-.3-.2-.4-.4l7.5-4.2c.5-.2.7-.6.7-.9l.1-3c0 .3-.3.7-.7.9l-8.7 4.8c-.2.1-.5.2-.8.3-.3.1-.6.1-.8.1-.3 0-.6 0-.8-.1h-.1c-.3-.1-.5-.1-.7-.3l-10.8-6.3c-.2-.1-.3-.3-.4-.4l7.5-4.2c.5-.3.7-.6.7-.9l.1-3c0 .2-.1.3-.2.5s-.3.3-.5.4l-8.7 4.8c-.2.1-.5.2-.8.3-.3.1-.5.1-.8.1-.3 0-.5 0-.8-.1h-.1c-.3-.1-.5-.2-.7-.3l-10.8-6.3c-.2-.1-.3-.2-.4-.3l7.5-4.2c.5-.3.7-.6.7-.9l.1-3c0 .2-.1.3-.2.5s-.3.3-.5.4l-8.7 4.8c-.2.1-.5.2-.8.3-.3.1-.5.1-.8.1-.3 0-.5 0-.8-.1h-.1c-.2-.1-.5-.2-.7-.3l-10.8-6.3c-.2-.1-.3-.2-.4-.4l7.5-4.2c.5-.2.7-.6.7-.9l.1-3c0 .3-.2.7-.7.9l-8.7 4.8c-.2.1-.5.2-.7.3-.3.1-.6.1-.9.1-.3 0-.5 0-.8-.1h-.1c-.3-.1-.5-.2-.7-.3l-10.8-6.3c-.2-.1-.3-.2-.4-.3l7.5-4.2c.4-.2.7-.6.7-.9l.1-3c0 .3-.2.7-.7.9l-8.7 4.8c-.2.1-.5.2-.7.3-.3.1-.6.1-.8.1-.3 0-.6 0-.8-.1h-.1c-.3-.1-.5-.2-.7-.3l-10.8-6.3c-.2-.1-.3-.2-.4-.4l7.5-4.2c.4-.3.7-.6.7-.9l.1-3c0 .3-.2.7-.7.9l-8.7 4.8c-.2.1-.5.2-.7.3-.3.1-.6.1-.8.1-.3 0-.5 0-.8-.1h-.1c-.3-.1-.5-.1-.7-.2l-10.8-6.3c-.2-.1-.3-.2-.4-.4l7.5-4.2c.5-.3.7-.6.7-.9l.1-3c0 .3-.3.7-.7.9l-8.7 4.8c-.2.1-.5.2-.8.3-.3.1-.5.1-.8.1-.3 0-.5 0-.8-.1h-.1c-.3-.1-.5-.1-.7-.3l-10.8-6.3c-.2-.1-.3-.2-.4-.4l7.5-4.2c.5-.2.7-.6.7-.9l.1-3c0 .3-.3.7-.7.9l-8.7 4.8c-.2.1-.5.2-.8.3-.3.1-.6.1-.8.1-.3 0-.6 0-.8-.1h-.1c-.2-.1-.5-.2-.7-.3l-10.8-6.3c-.2-.1-.3-.2-.4-.3l7.5-4.2c.4-.3.7-.6.7-.9l.1-3c0 .3-.2.7-.7.9l-8.7 4.8c-.2.1-.5.2-.7.3-.3.1-.6.1-.8.1-.3 0-.5 0-.8-.1h-.1c-.2-.1-.5-.2-.7-.3l-10.8-6.3c-.2-.1-.4-.3-.5-.4v-.1l7.5-4.2c.5-.3.7-.6.7-.9l.1-2.9c0 .3-.3.6-.7.9l-8.7 4.8c-.2.1-.5.2-.8.3-.3.1-.6.1-.9.1-.3 0-.5 0-.8-.1h-.1c-.2-.1-.5-.1-.7-.2l-10.8-6.3c-.2-.1-.3-.2-.4-.4l7.5-4.2c.4-.3.7-.6.7-.9l.1-3c0 .3-.2.7-.7.9l-8.7 4.8c-.2.1-.5.2-.7.3-.3.1-.6.1-.8.1-.3 0-.5 0-.8-.1h-.1c-.3-.1-.5-.1-.7-.2l-10.8-6.3c-.1 0-.1-.1-.2-.2l7.6-4.2c.5-.3.7-.6.7-.9l.1-3c0 .3-.3.7-.7.9l-8.7 4.8c-.2.1-.5.2-.8.3-.3.1-.6.1-.8.1-.3 0-.5 0-.8-.1h-.1c-.3-.1-.5-.2-.7-.3l-10.8-6.3c-.2-.1-.4-.3-.5-.4-.1-.2-.1-.3-.1-.5l-.1 3v.2s0 .1.1.1v.1c0 .1.1.1.1.2.1.1.2.1.3.2l10.8 6.3c.2.1.3.2.5.2.1 0 .1 0 .2.1h1.8c.1 0 .2-.1.3-.1.1 0 .2-.1.3-.2l.6-.3-.1 2v.2s0 .1.1.1c0 0 0 .1.1.1 0 .1.1.1.1.2.1.1.2.1.3.2l10.8 6.3c.2.1.3.2.5.2.1 0 .1 0 .2.1h1.8c.1 0 .2-.1.3-.1.1 0 .2-.1.3-.2l.9-.5-.1 2.3v.2s0 .1.1.1v.1c0 .1.1.1.1.2.1.1.2.1.3.2l4.7 2.8-.2.2-8.7 4.8c-.2.1-.5.2-.8.3-.3.1-.6.1-.8.1-.3 0-.5 0-.8-.1h-.1c-.2-.1-.5-.2-.7-.3l-36.3-21.1c-.2-.1-.4-.3-.5-.4-.1-.2-.2-.3-.2-.5l-.1 3v.2s0 .1.1.1c0 0 0 .1.1.1 0 .1.1.1.1.2.1.1.2.1.3.2l10.5 6.2-.3.3-8.7 4.8c-.2.1-.5.2-.7.3-.3.1-.5.1-.8.1-.3 0-.5 0-.8-.1h-.1c-.3-.1-.5-.1-.7-.3l-11.6-6.8c-.2-.1-.4-.3-.5-.4-.1-.2-.1-.3-.1-.5l-.1 3v.2s0 .1.1.1l.2.2c.1.1.2.2.3.2l7.1 4.1c-.1.1-.2.2-.3.2l-21.9 12.2c-.2.1-.5.2-.7.3-.3.1-.5.1-.8.1-.3 0-.5 0-.8-.1h-.1c-.3-.1-.5-.2-.7-.3l-8.1-4.7c-.2-.1-.4-.3-.5-.4-.1-.1-.2-.3-.2-.5l-.1 3v.2c0 .1 0 .1.1.1v.1l.1.1c.1.1.2.2.3.2l7.1 4.1c-.1.1-.2.2-.3.2l-22 12.2c-.2.1-.5.2-.8.3-.3.1-.6.1-.8.1-.3 0-.5 0-.8-.1h-.1c-.3-.1-.5-.2-.7-.3l-8.2-4.7c-.2-.1-.4-.3-.5-.4-.1-.2-.1-.3-.1-.5l-.1 3v.2s0 .1.1.1l.1.1.2.2c.1.1.2.1.3.2l8.1 4.7c.2.1.3.2.5.2h2c.1 0 .2-.1.3-.1.1 0 .2-.1.3-.2l13.9-7.7-.1 2v.2s0 .1.1.1v.1c0 .1.1.1.1.2.1.1.2.1.3.2l12.3 7.2c.2.1.3.2.5.2.1 0 .1 0 .2.1h1.8c.1 0 .2-.1.3-.1.1 0 .2-.1.3-.2l1-.5-.1 2.4v.2s0 .1.1.1v.1l.2.2c.1.1.2.2.3.2l6.1 3.5c.2.1.3.2.5.2h2c.1 0 .2-.1.3-.1.1-.1.2-.1.3-.2l1.4-.8-.1 2.9v.2s0 .1.1.1v.1c0 .1.1.1.1.2.1.1.2.1.3.2l1.9 1.1c-.1.1-.1.2-.3.2l-8.7 4.8c-.2.1-.5.2-.7.3-.3.1-.6.1-.8.1-.3 0-.5 0-.8-.1h-.1c-.3-.1-.5-.2-.7-.3l-10.8-6.3c-.2-.1-.3-.2-.4-.3l7.5-4.2c.5-.3.7-.6.7-.9l.1-3c0 .4-.3.7-.7.9l-8.7 4.8c-.2.1-.5.2-.8.3-.3.1-.6.1-.8.1-.3 0-.5 0-.8-.1h-.1c-.3-.1-.5-.2-.7-.3l-10.8-6.3c-.2-.1-.4-.3-.5-.4-.1-.2-.1-.3-.1-.5l-.1 3v.2s0 .1.1.1v.1c0 .1.1.1.1.2.1.1.2.1.3.2l10.8 6.3c.2.1.3.2.5.2h2.1c.1 0 .2-.1.3-.1.1 0 .2-.1.3-.2l.9-.5-.1 2.3v.2s0 .1.1.1c0 0 0 .1.1.1l.2.2c.1.1.2.2.3.2l10.8 6.3c.2.1.3.2.5.2h2c.1 0 .2-.1.3-.1.1 0 .2-.1.3-.2l1-.6-.1 2.5v.2s0 .1.1.1c0 0 0 .1.1.1l.2.2c.1.1.2.1.3.2l10.8 6.3c.2.1.3.2.5.2h2c.1 0 .2-.1.3-.1.1 0 .2-.1.3-.2l.9-.5-.1 2.3v.2s0 .1.1.1l.1.1c0 .1.1.1.1.2.1.1.2.2.3.2l10.8 6.3c.1.1.3.2.5.2h2c.1 0 .2-.1.3-.1.1 0 .2-.1.3-.2l.9-.5-.1 2.3v.2s0 .1.1.1c0 0 0 .1.1.1 0 0 .1.1.1.2.1.1.2.1.3.2l72.4 42.2c.2.1.3.2.5.2h1.9c.1 0 .2-.1.3-.1.1 0 .2-.1.3-.2l.9-.5-.1 2.3v.2s0 .1.1.1v.2l.1.1c.1.1.2.1.3.2l10.8 6.3c.2.1.3.2.5.2h2c.1 0 .2-.1.3-.1.1-.1.2-.1.3-.2l.9-.5-.1 2.3v.2s0 .1.1.1v.1c0 .1.1.1.1.2.1.1.2.1.3.2l10.8 6.3c.2.1.3.2.5.2.1 0 .1 0 .2.1h1.8c.1 0 .2-.1.3-.1.1 0 .2-.1.3-.2l.9-.5-.1 2.3v.2s0 .1.1.1c0 0 0 .1.1.1 0 .1.1.1.1.2.1.1.2.1.3.2l10.8 6.3c.2.1.3.2.5.2.1 0 .1 0 .2.1h1.9c.1 0 .2-.1.3-.1.1 0 .2-.1.3-.2l.9-.5-.1 2.3v.2c0 .1 0 .1.1.1l.1.1v.1l.1.1c.1.1.2.2.3.2l10.8 6.3c.1.1.3.2.5.2h2.2c.1 0 .2 0 .3-.1.1-.1.2-.1.3-.2l.9-.5-.1 2.3v.3s0 .1.1.1l.1.1v.1l.1.1c.1.1.2.2.3.2l8.4 4.9c.1.1.3.2.5.2.1 0 .1 0 .2.1h1.8c.1 0 .2 0 .3-.1.1-.1.2-.1.3-.2l8.7-4.8c.5-.3.7-.6.7-.9l.1-2.8h.6c.1 0 .2 0 .3-.1.1 0 .2-.1.3-.2l8.7-4.8c.5-.2.7-.6.7-.9l.1-2.2 3.4 2c.2.1.3.2.5.2.1 0 .1 0 .2.1h1.8c.1 0 .2-.1.3-.1.1 0 .2-.1.3-.1l8.7-4.8c.5-.3.7-.6.7-.9l.1-2 .6.4c.1.1.3.2.5.2h2c.1 0 .2-.1.3-.1.1 0 .2-.1.3-.2l8.7-4.8c.5-.3.7-.6.7-.9l.1-2 .6.4c.1.1.3.2.5.2.1 0 .1 0 .2.1h1.9c.1 0 .2-.1.3-.1.1 0 .2-.1.3-.2l8.7-4.8c.5-.3.7-.6.7-.9l.1-3c0 .3-.2.7-.7.9l-8.7 4.8c-.2.1-.5.2-.7.3-.3.1-.6.1-.9.1-.3 0-.5 0-.8-.1h-.1c-.2-.1-.5-.1-.7-.2L429.9 529c-.2-.1-.4-.3-.5-.4v-.1l7.4-4.1c.5-.2.7-.6.7-.9l.1-2.1 8.6 5c.2.1.3.2.5.2.1 0 .1 0 .2.1h1.8c.1 0 .2-.1.3-.1.1 0 .2-.1.3-.2l.9-.5-.1 2.3v.2s0 .1.1.1v.1l.1.1c.1.1.2.2.3.2l10.8 6.3c.2.1.3.2.5.2.1 0 .1 0 .2.1h1.9c.1 0 .2-.1.3-.1.1 0 .2-.1.3-.2l.2-.1 8.4-4.7c.5-.3.7-.6.7-.9l.1-2 5.7 3.3c.1.1.3.2.5.2h2c.1 0 .2-.1.3-.1.1-.1.2-.1.3-.2l8.7-4.8c.5-.3.7-.6.7-.9l.1-2.9c.3.4 0 .7-.4.9zm-209.3-91.6l-11.7 6.5-.1 3 4-2.3-.1 2.5v.2s0 .1.1.1v.1l.2.2c.1.1.2.2.3.2l4.7 2.7-.2.2-8.7 4.8c-.2.1-.5.2-.8.3-.3.1-.6.1-.9.1-.3 0-.5 0-.8-.1h-.1c-.3-.1-.5-.2-.7-.3l-21.3-12.4c-.2-.1-.4-.3-.5-.4-.1-.1-.1-.3-.1-.5l-.1 3v.2c0 .1 0 .1.1.1 0 0 0 .1.1.1 0 .1.1.1.1.2.1.1.2.1.3.2l9.7 5.7-.2.2-8.7 4.8c-.2.1-.5.2-.7.3-.3.1-.6.1-.9.1-.3 0-.5 0-.8-.1h-.1c-.3-.1-.5-.1-.7-.3l-14.2-8.3c-.2-.1-.4-.3-.5-.4-.1-.1-.1-.2-.1-.3l7.2-4c.4-.3.7-.6.7-.9l.1-1.9.6.3c.1.1.3.2.5.2.1 0 .1 0 .2.1h1.9c.1 0 .2-.1.3-.1.1 0 .2-.1.3-.2l8.7-4.8c.5-.3.7-.6.7-.9l.1-2.1 3.9 2.3c.2.1.3.2.5.2h1.9c.1 0 .2-.1.3-.1.1-.1.2-.1.3-.2l8.7-4.8c.4-.3.7-.6.7-.9l.1-2.1 9.4 5.5c.2.1.3.2.5.2h2.1c.1 0 .2-.1.3-.1.1-.1.2-.1.3-.2l1-.6-.1 2.4v.2s0 .1.1.1v.1c0 .1.1.1.1.2.1.1.2.1.3.2l1.6.9c.3.5.2.6.1.6z"/><path class="st1" d="M226.3 428.7c-.1-.1-.2-.1-.3-.2-.1 0-.1-.1-.1-.1v-.1s0-.1-.1-.1v-.2l.1-2.3-13 7.2c.1.1.2.3.4.4l11.6 6.8c.2.1.4.2.7.3h.1c.2.1.5.1.8.1.3 0 .6 0 .8-.1.3-.1.5-.2.8-.3l8.7-4.8c.1 0 .1-.1.2-.1l-10.7-6.5c0 .1 0 0 0 0zm16.6-5.5c-.1-.1-.2-.1-.3-.2-.1 0-.1-.1-.1-.2v-.1s0-.1-.1-.1v-.2l.1-2-.7.4c-.1.1-.2.1-.3.2-.1 0-.2.1-.3.1h-1.9c-.2-.1-.3-.1-.5-.2l-4.2-2.4-.1 2.1c0 .3-.3.7-.7.9l-7.5 4.2c.1.1.2.3.4.4l11.6 6.8c.2.1.4.2.7.3h.1c.3.1.5.1.8.1.3 0 .6 0 .8-.1.3-.1.5-.2.7-.3l8.7-4.8c.1-.1.2-.2.3-.2l-7.5-4.7zm8.2-8.3c0 .3-.2.7-.7.9l-7.6 4.2.2.2 11.6 6.8c.2.1.4.2.7.3h.1c.2.1.5.1.8.1.3 0 .6 0 .8-.1.3-.1.5-.2.8-.3l8.7-4.8.3-.3-15.7-9.1v2.1zm20.8 39.9v-.1l.1-2.3-.9.5c-.1.1-.2.1-.3.2-.1 0-.2.1-.3.1h-1.9c-.2-.1-.3-.1-.5-.2l-11.1-6.5-.1 2c0 .3-.2.7-.7.9l-7.5 4.2v.1c.1.2.3.3.5.4l10.8 6.3c.2.1.4.2.7.3h.1c.2.1.5.1.8.1.3 0 .6 0 .8-.1.3-.1.5-.2.7-.3l8.7-4.8c.2-.1.3-.2.4-.3v-.1l-.3-.4zm7.7 20c-.1-.1-.2-.1-.3-.2l-.1-.1v-.1s0-.1-.1-.1v-.2l.1-2.3-.9.5c-.1.1-.2.1-.3.2-.1 0-.2.1-.3.1h-2.2c-.2-.1-.3-.1-.5-.2l-5.8-3.4-.1 2.2c0 .3-.2.7-.7.9l-7.5 4.2c.1.1.2.3.4.4l10.8 6.3c.2.1.4.2.7.3h.1c.2.1.5.1.8.1.3 0 .6 0 .8-.1.3-.1.5-.2.7-.3l8.7-4.8c.2-.1.2-.2.4-.3l-4.7-3.1c.1 0 .1 0 0 0zm15.5 9c-.1-.1-.2-.1-.3-.2 0 0-.1-.1-.1-.2v-.2s0-.1-.1-.1v-.2l.1-2.3-.9.5c-.1.1-.2.1-.3.2-.1 0-.2.1-.3.1h-2.1c-.2-.1-.3-.1-.5-.2l-5.8-3.4-.1 2.2c0 .3-.3.7-.7.9l-7.5 4.2c.1.1.2.3.4.4l10.8 6.3c.2.1.4.2.7.3h.1c.3.1.5.1.8.1.3 0 .6 0 .8-.1.3-.1.5-.2.7-.3l8.7-4.8c.2-.1.2-.2.4-.3l-4.8-2.9zm15.4 9c-.1-.1-.2-.1-.3-.2-.1 0-.1-.1-.1-.1v-.1s0-.1-.1-.1v-.2l.1-2.3-.9.5c-.1.1-.2.1-.3.2-.1 0-.2.1-.3.1h-2c-.2-.1-.3-.1-.5-.2l-5.8-3.4-.1 2.2c0 .3-.2.7-.7.9l-7.5 4.2c.1.1.2.3.4.4l10.8 6.3c.2.1.4.2.7.3h.1c.2.1.5.1.8.1.3 0 .6 0 .8-.1.3-.1.5-.2.7-.3l8.7-4.8c.2-.1.3-.2.4-.3l-4.9-3.1zm15.4 8.9c-.1-.1-.2-.1-.3-.2-.1 0-.1-.1-.1-.2v-.1s0-.1-.1-.1v-.2l.1-2.3-.9.5c-.1.1-.2.1-.3.2-.1 0-.2.1-.3.1h-2.1c-.2-.1-.3-.1-.5-.2l-5.8-3.4-.1 2.2c0 .3-.2.7-.7.9l-7.5 4.2c.1.1.2.3.4.4l10.8 6.3c.2.1.4.2.7.3h.1c.3 0 .5.1.8.1.3 0 .6 0 .8-.1.3-.1.5-.2.7-.3l8.7-4.8c.2-.1.2-.2.4-.3l-4.8-3zm15.4 9c-.1-.1-.2-.1-.3-.2l-.1-.1v-.1s0-.1-.1-.1v-.2l.1-2.4-.9.5c-.1.1-.2.1-.3.2-.1 0-.2.1-.3.1h-2.1c-.2-.1-.3-.1-.5-.2l-5.8-3.4-.1 2.2c0 .3-.3.7-.7.9l-7.5 4.2c.1.1.2.3.4.4l10.8 6.3c.2.1.4.2.7.3h.1c.2.1.5.1.8.1.3 0 .6 0 .8-.1.3-.1.5-.2.7-.3l8.7-4.8c.2-.1.2-.2.4-.3l-4.8-3zm15.4 9c-.1-.1-.2-.1-.3-.2l-.1-.1v-.1s0-.1-.1-.1v-.2l.1-2.3-.9.5c-.1.1-.2.1-.3.2-.1 0-.2.1-.3.1h-2.1c-.2-.1-.3-.1-.5-.2l-5.8-3.4-.1 2.2c0 .3-.2.7-.7.9l-7.5 4.2.4.4 10.8 6.3c.2.1.4.2.7.3h.1c.2.1.5.1.8.1.3 0 .6 0 .8-.1.3-.1.5-.2.7-.3l8.7-4.8c.2-.1.3-.2.4-.3l-4.8-3.1zm15.4 9c-.1-.1-.2-.1-.3-.2-.1 0-.1-.1-.1-.1v-.1s0-.1-.1-.1v-.2l.1-2.3-.9.5c-.1.1-.2.1-.3.2-.1 0-.2.1-.3.1h-2c-.2-.1-.3-.1-.5-.2l-5.8-3.4-.1 2.2c0 .3-.3.7-.7.9l-7.5 4.2c.1.1.2.3.4.4l10.8 6.3c.2.1.4.2.7.3h.1c.3.1.5.1.8.1.3 0 .6 0 .8-.1.3-.1.5-.2.7-.3l8.7-4.8c.2-.1.2-.2.4-.3l-4.9-3.1c.1 0 .1 0 0 0zm15.5 9c-.1-.1-.2-.1-.3-.2-.1 0-.1-.1-.1-.2v-.1s0-.1-.1-.1v-.2l.1-2.3-.9.5c-.1.1-.2.1-.3.2-.1 0-.2.1-.3.1h-2c-.2-.1-.3-.1-.5-.2l-5.8-3.4-.1 2.2c0 .3-.3.7-.7.9l-7.5 4.2.4.4 10.8 6.3c.2.1.4.2.7.3h.1c.2.1.5.1.8.1.3 0 .6 0 .8-.1.3-.1.5-.2.7-.3l8.7-4.8c.2-.1.2-.2.4-.3l-4.9-3zm15.6 9.1c-.1-.1-.2-.1-.3-.2l-.1-.1v-.1s0-.1-.1-.1v-.2l.1-2.6-1.1.6c-.1.1-.2.1-.3.2-.1 0-.2.1-.3.1h-2c-.2-.1-.3-.1-.5-.2l-5.8-3.4-.1 2.2c0 .3-.3.7-.7.9l-7.5 4.2c.1.1.2.3.4.4l10.8 6.3c.2.1.4.2.7.3h.1c.3.1.5.1.8.1.3 0 .6 0 .8-.1.3-.1.5-.2.7-.3l8.7-4.8c.2-.1.2-.2.4-.3l-4.7-2.9zm16.8-35.7c-.1-.1-.2-.1-.3-.2-.1 0-.1-.1-.1-.1v-.1s0-.1-.1-.1v-.2l.1-2.3-.9.5c-.1.1-.2.1-.3.2-.1 0-.2.1-.3.1H416c-.2-.1-.3-.1-.5-.2l-8.6-5-.1 2c0 .3-.2.7-.7.9l-7.5 4.2c.1.1.2.3.4.4l10.8 6.3c.2.1.4.2.7.3h.1c.3.1.5.1.8.1.3 0 .6 0 .8-.1.3-.1.5-.2.7-.3l8.7-4.8c.1-.1.2-.1.3-.2l-1.9-1.4zm-15.4-9c-.1-.1-.2-.1-.3-.2-.1 0-.1-.1-.1-.2v-.1s0-.1-.1-.1v-.2l.1-2.3-.9.5c-.1.1-.2.1-.3.2-.1 0-.2.1-.3.1h-1.9c-.2-.1-.3-.1-.5-.2l-8.6-5-.1 2c0 .3-.3.7-.7.9l-7.5 4.2c.1.1.2.3.4.4l10.8 6.3c.2.1.4.2.7.3h.1c.2.1.5.1.8.1.3 0 .6 0 .8-.1.3-.1.5-.2.7-.3l8.7-4.8c.1-.1.2-.1.3-.2l-2.1-1.3zm-15.4-8.9c-.1-.1-.2-.1-.3-.2l-.1-.1v-.1s0-.1-.1-.1v-.2l.1-2.3-.9.5c-.1.1-.2.1-.3.2-.1 0-.2.1-.3.1H385c-.2-.1-.3-.1-.5-.2l-8.7-5-.1 2c0 .3-.3.7-.7.9l-7.5 4.2c.1.1.2.3.4.4l10.8 6.3c.2.1.4.2.7.3h.1c.3.1.5.1.8.1.3 0 .6 0 .8-.1.3-.1.5-.2.7-.3l8.7-4.8c.1-.1.2-.1.3-.2l-1.6-1.4zm-15.4-9c-.1-.1-.2-.1-.3-.2 0 0-.1-.1-.1-.2v-.1s0-.1-.1-.1v-.2l.1-2.4-.9.5c-.1.1-.2.1-.3.2-.1 0-.2.1-.3.1h-2c-.2-.1-.3-.1-.5-.2l-8.6-5-.1 2c0 .3-.2.7-.7.9l-7.5 4.2c.1.1.2.3.4.4l10.8 6.3c.2.1.4.2.7.3h.1c.3.1.5.1.8.1.3 0 .6 0 .8-.1.3-.1.5-.2.7-.3l8.7-4.8c.1-.1.2-.1.3-.2l-2-1.2zm-15.5-9c-.1-.1-.2-.1-.3-.2-.1 0-.1-.1-.1-.2v-.1s0-.1-.1-.1v-.2l.1-2.3-.9.5c-.1.1-.2.1-.3.2-.1 0-.2.1-.3.1h-1.9c-.2-.1-.3-.1-.5-.2l-8.6-5-.1 2c0 .3-.3.7-.7.9l-7.5 4.2c.1.1.2.3.4.4l10.8 6.3c.2.1.4.2.7.3h.1c.2.1.5.1.8.1.3 0 .6 0 .8-.1.3-.1.5-.2.7-.3l8.7-4.8c.1-.1.2-.1.3-.2l-2.1-1.3zm-15.4-9c-.1-.1-.2-.1-.3-.2l-.1-.1v-.1s0-.1-.1-.1v-.2l.1-2.3-.9.5c-.1.1-.2.1-.3.2-.1 0-.2.1-.3.1h-1.9c-.2-.1-.3-.1-.5-.2l-8.6-5-.1 2c0 .3-.2.7-.7.9l-7.5 4.2c.1.1.2.3.4.4l10.8 6.3c.2.1.4.2.7.3h.1c.3.1.5.1.8.1.3 0 .6 0 .8-.1.3-.1.5-.2.7-.3l8.7-4.8c.1-.1.2-.1.3-.2l-2.1-1.4zm-15.4-9c-.1-.1-.2-.1-.3-.2-.1 0-.1-.1-.1-.2v-.1s0-.1-.1-.1v-.2l.1-2.3-.9.5c-.1.1-.2.1-.3.2-.1 0-.2.1-.3.1h-2c-.2-.1-.3-.1-.5-.2l-8.6-5-.1 2c0 .3-.2.7-.7.9l-7.5 4.2c.1.1.2.3.4.4l10.8 6.3c.2.1.4.2.7.3h.1c.2.1.5.1.8.1.3 0 .6 0 .8-.1.3-.1.5-.2.7-.3l8.7-4.8c.1-.1.2-.1.3-.2l-2-1.3zm-15.4-9c-.1-.1-.2-.1-.3-.2-.1 0-.1-.1-.1-.1l-.1-.1s0-.1-.1-.1v-.2l.1-2.3-.9.5c-.1.1-.2.1-.3.2-.1 0-.2.1-.3.1h-2c-.2-.1-.3-.1-.5-.2l-8.6-5-.1 2c0 .3-.3.7-.7.9l-7.5 4.2c.1.1.2.3.4.4l10.8 6.3c.2.1.4.2.7.3h.1c.2.1.5.1.8.1.3 0 .6 0 .8-.1.3-.1.5-.2.7-.3l8.7-4.8c.1-.1.2-.1.3-.2l-1.9-1.4c0 .1 0 0 0 0zm-15.4-8.9c-.1-.1-.2-.1-.3-.2 0-.1-.1-.1-.1-.2v-.1s0-.1-.1-.1v-.2l.1-2.3-.9.5c-.1.1-.2.1-.3.2-.1 0-.2.1-.3.1h-1.9c-.2-.1-.3-.1-.5-.2l-8.8-5.1-.1 2c0 .3-.2.7-.7.9l-7.5 4.2v.1c.1.2.3.3.5.4l10.8 6.3c.2.1.4.2.7.3h.1c.2.1.5.1.8.1.3 0 .6 0 .8-.1.3-.1.5-.2.7-.3l8.7-4.8c.1-.1.2-.1.3-.2l-2-1.3zm-5.9 11.7c-.1-.1-.2-.1-.3-.2-.1 0-.1-.1-.1-.1v-.1s0-.1-.1-.1v-.2l.1-2.3-.9.5c-.1.1-.2.1-.3.2-.1 0-.2.1-.3.1H287c-.2-.1-.3-.1-.5-.2l-5.7-3.3-.1 2c0 .3-.2.7-.7.9l-7.5 4.2c.1.1.2.3.4.4l10.8 6.3c.2.1.4.2.7.3h.1c.3.1.5.1.8.1.3 0 .6 0 .8-.1.3-.1.5-.2.8-.3l8.7-4.8c.1-.1.2-.1.2-.2l-5-3.1zm11.9 21.7v-.1l.1-2.3-.9.5c-.1.1-.2.1-.3.2-.1 0-.2.1-.3.1h-2.1c-.2-.1-.3-.1-.5-.2l-10.8-6.3c-.1 0-.1-.1-.2-.2l-.1 2c0 .3-.3.7-.7.9l-7.5 4.2c.1.1.2.3.4.4l10.8 6.3c.2.1.4.2.7.3h.1c.3.1.5.1.8.1.3 0 .6 0 .8-.1.3-.1.5-.2.7-.3l8.7-4.8c.2-.1.3-.2.4-.3 0 0 0-.1-.1-.1v-.3zm15.4 9v-.1l.1-2.3-.9.5c-.1.1-.2.1-.3.2-.1 0-.2.1-.3.1h-2c-.2-.1-.3-.1-.5-.2l-10.8-6.3c-.1 0-.1-.1-.2-.1l-.1 2c0 .3-.3.7-.7.9l-7.5 4.2.4.4 10.8 6.3c.2.1.4.2.7.3h.1c.3.1.5.1.8.1.3 0 .6 0 .8-.1.3-.1.5-.2.7-.3l8.7-4.8c.2-.1.3-.2.4-.3v-.1c-.2-.3-.2-.4-.2-.4zm15.4 9v-.1l.1-2.3-.9.5c-.1.1-.2.1-.3.2-.1 0-.2.1-.3.1H330c-.2-.1-.3-.1-.5-.2l-10.8-6.3c-.1 0-.1-.1-.2-.2l-.1 2c0 .3-.3.7-.7.9l-7.5 4.2c.1.1.2.3.4.4l10.8 6.3c.2.1.4.2.7.3h.1c.3.1.5.1.8.1.3 0 .6 0 .8-.1.3-.1.5-.2.7-.3l8.7-4.8c.2-.1.3-.2.4-.3 0 0 0-.1-.1-.1v-.3zm15.6 6.5l-.9.5c-.1.1-.2.1-.3.2-.1 0-.2.1-.3.1h-1.7c-.1 0-.1 0-.2-.1-.2-.1-.3-.1-.5-.2l-10.8-6.3c-.1 0-.1-.1-.2-.1l-.1 2c0 .3-.2.7-.7.9l-7.5 4.2.4.4 10.8 6.3c.2.1.4.2.7.3h.1c.2 0 .5.1.8.1.3 0 .6 0 .8-.1.3-.1.5-.1.7-.3l8.7-4.8c.2-.1.3-.2.4-.3v-.3l-.2-2.5zm15.3 11.4v-.1l.1-2.3-.9.5c-.1.1-.2.1-.3.2-.1 0-.2.1-.3.1h-2.1c-.2-.1-.3-.1-.5-.2l-10.8-6.3c-.1-.1-.2-.1-.2-.2l-.1 2c0 .3-.3.7-.7.9l-7.5 4.2c.1.1.2.3.4.4l10.8 6.3c.2.1.4.2.7.3h.1c.3.1.5.1.8.1.3 0 .6 0 .8-.1.3-.1.5-.2.7-.3l8.7-4.8c.2-.1.3-.2.4-.3 0 0 0-.1-.1-.1v-.3zm15.4 9v-.1l.1-2.3-.9.5c-.1.1-.2.1-.3.2-.1 0-.2.1-.3.1h-1.9c-.2-.1-.3-.1-.5-.2l-10.8-6.3c-.1 0-.1-.1-.2-.1l-.1 2c0 .3-.2.7-.7.9l-7.5 4.2.4.4 10.8 6.3c.2.1.4.2.7.3h.1c.2.1.5.1.8.1.3 0 .6 0 .8-.1.3-.1.5-.2.7-.3l8.7-4.8c.2-.1.3-.2.4-.3 0 0 0-.1-.1-.1-.2-.3-.2-.3-.2-.4zm15.4 9v-.1l.1-2.3-.9.5c-.1.1-.2.1-.3.2-.1 0-.2.1-.3.1h-1.7c-.1 0-.1 0-.2-.1-.2-.1-.3-.1-.5-.2l-10.8-6.3c-.1 0-.1-.1-.2-.2l-.1 2c0 .3-.2.7-.7.9l-7.5 4.2c.1.1.2.3.4.4L383 532c.2.1.4.2.7.3h.1c.3.1.5.1.8.1.3 0 .6 0 .8-.1.3-.1.5-.2.7-.3l8.7-4.8c.2-.1.3-.2.4-.3 0 0 0-.1-.1-.1.1-.1.1-.2.1-.2zm3.5-12.7c-.1-.1-.2-.1-.3-.2l-.1-.1v-.1s0-.1-.1-.1v-.2l.1-2.3-.9.5c-.1.1-.2.1-.3.2-.1 0-.2.1-.3.1H395c-.1 0-.1 0-.2-.1-.2-.1-.3-.1-.5-.2l-5.7-3.3-.1 2c0 .3-.2.7-.7.9l-7.5 4.2c.1.1.2.3.4.4l10.8 6.3c.2.1.4.2.7.3h.1c.2.1.5.1.8.1.3 0 .6 0 .8-.1.3-.1.5-.2.8-.3l8.7-4.8c.1-.1.2-.1.2-.2l-4.9-3zm-15.4-9c-.1-.1-.2-.1-.3-.2 0-.1-.1-.1-.1-.2v-.1s0-.1-.1-.1v-.2l.1-2.3-.9.5c-.1.1-.2.1-.3.2-.1 0-.2.1-.3.1h-1.8c-.1 0-.1 0-.2-.1-.2-.1-.3-.1-.5-.2l-5.7-3.3-.1 2c0 .3-.2.7-.7.9l-7.5 4.2c.1.1.2.3.4.4l10.8 6.3c.2.1.4.2.7.3h.1c.3.1.5.1.8.1.3 0 .6 0 .8-.1.3-.1.5-.2.7-.3l8.7-4.8c.1-.1.2-.1.2-.2l-4.8-2.9z"/><path class="st1" d="M367.9 495.9c-.1-.1-.2-.1-.3-.2 0 0-.1-.1-.1-.2v-.1s0-.1-.1-.1v-.2l.1-2.4-.9.5c-.1.1-.2.1-.3.2-.1 0-.2.1-.3.1h-1.9c-.2-.1-.3-.1-.5-.2l-5.7-3.3-.1 2c0 .3-.2.7-.7.9l-7.5 4.2c.1.1.2.3.4.4l10.8 6.3c.2.1.4.2.7.3h.1c.3.1.5.1.8.1.3 0 .6 0 .8-.1.3-.1.5-.2.8-.3l8.7-4.8c.1-.1.2-.1.2-.2l-5-2.9zm-15.5-9c-.1-.1-.2-.1-.3-.2-.1 0-.1-.1-.1-.1v-.1s0-.1-.1-.1v-.2l.1-2.3-.9.5c-.1.1-.2.1-.3.2-.1 0-.2.1-.3.1h-1.8c-.1 0-.1 0-.2-.1-.2-.1-.3-.1-.5-.2l-5.7-3.3-.1 2c0 .3-.2.7-.7.9l-7.5 4.2.4.4 10.8 6.3c.2.1.4.2.7.3h.1c.3.1.5.1.8.1.3 0 .6 0 .8-.1.3-.1.5-.2.8-.3l8.7-4.8c.1-.1.2-.1.2-.2l-4.9-3c.1 0 0 0 0 0zM337 478c-.1-.1-.2-.1-.3-.2-.1 0-.1-.1-.1-.1v-.1s0-.1-.1-.1v-.2l.1-2.3-.9.5c-.1.1-.2.1-.3.2-.1 0-.2.1-.3.1h-1.9c-.2-.1-.3-.1-.5-.2l-5.7-3.3-.1 2c0 .3-.2.7-.7.9l-7.5 4.2c.1.1.2.3.4.4l10.8 6.3c.2.1.4.2.7.3h.1c.3.1.5.1.8.1.3 0 .6 0 .8-.1.3-.1.5-.2.8-.3l8.7-4.8c.1-.1.2-.1.2-.2l-5-3.1zm-15.4-9c-.1-.1-.2-.1-.3-.2 0 0-.1-.1-.1-.2v-.1s0-.1-.1-.1v-.2l.1-2.3-.9.5c-.1.1-.2.1-.3.2-.1 0-.2.1-.3.1h-2c-.2-.1-.3-.1-.5-.2l-5.7-3.3-.1 2c0 .3-.2.7-.7.9l-7.5 4.2c.1.1.2.3.4.4l10.8 6.3c.2.1.4.2.7.3h.1c.2.1.5.1.8.1.3 0 .6 0 .8-.1.3-.1.5-.2.8-.3l8.7-4.8c.1-.1.2-.1.2-.2l-4.9-3zm-15.4-9c-.1-.1-.2-.1-.3-.2l-.1-.1v-.2s0-.1-.1-.1v-.2l.1-2.3-.9.5c-.1.1-.2.1-.3.2-.1 0-.2.1-.3.1h-2c-.1 0-.1 0-.2-.1-.2-.1-.3-.1-.5-.2l-5.7-3.3-.1 2c0 .3-.2.7-.7.9l-7.5 4.2c.1.1.2.3.4.4l10.8 6.3c.2.1.4.2.7.3h.1c.2.1.5.1.8.1.3 0 .6 0 .8-.1.3-.1.5-.2.8-.3l8.7-4.8c.1-.1.2-.1.2-.2l-4.7-2.9zm107.9 62.9c-.1-.1-.2-.1-.3-.2-.1-.1-.1-.1-.1-.2v-.1s0-.1-.1-.1v-.2l.1-2.3-.9.5c-.1.1-.2.1-.3.2-.1 0-.2.1-.3.1h-1.9c-.1 0-.1 0-.2-.1-.2-.1-.3-.1-.5-.2l-5.7-3.3-.1 2c0 .3-.3.7-.7.9l-7.5 4.2c.1.1.2.3.4.4l10.8 6.3c.2.1.4.2.7.3h.1c.2.1.5.1.8.1.3 0 .6 0 .8-.1.3-.1.5-.2.8-.3l8.7-4.8c.1-.1.2-.1.2-.2l-4.8-2.9zm-3.5 12.7v-.1l.1-2.3-.9.5c-.1.1-.2.1-.3.2-.1 0-.2.1-.3.1h-2c-.2-.1-.3-.1-.5-.2l-10.8-6.3c-.1 0-.1-.1-.2-.1l-.1 2c0 .3-.3.7-.7.9l-7.5 4.2c.1.1.2.3.4.4l10.8 6.3c.2.1.4.2.7.3h.1c.3.1.5.1.8.1.3 0 .6 0 .8-.1.3-.1.5-.2.7-.3l8.7-4.8c.2-.1.3-.2.4-.3v-.1c-.2-.3-.2-.4-.2-.4zm-123.3-71.9v-.1l.1-2.3-.9.5c-.1.1-.2.1-.3.2-.1 0-.2.1-.3.1h-2c-.2-.1-.3-.1-.5-.2l-10.8-6.3c-.1 0-.1-.1-.2-.1l-.1 2c0 .3-.3.7-.7.9l-7.5 4.2c.1.1.2.3.4.4l10.8 6.3c.2.1.4.2.7.3h.1c.2.1.5.1.8.1.3 0 .6 0 .8-.1.3-.1.5-.2.7-.3l8.7-4.8c.2-.1.3-.2.4-.3v-.1c-.2-.3-.2-.3-.2-.4zm12.3-37.9c-.1-.1-.2-.1-.3-.2 0 0-.1-.1-.1-.2v-.1s0-.1-.1-.1v-.2l.1-2.5-1 .6c-.1.1-.2.1-.3.2-.1 0-.2.1-.3.1h-2.1c-.2-.1-.3-.1-.5-.2l-5.6-3.3-.1 2c0 .3-.2.7-.7.9l-7.5 4.2c.1.2.3.3.5.4l10.8 6.3c.2.1.4.2.7.3h.1c.2.1.5.1.8.1.3 0 .6 0 .8-.1.3-.1.5-.2.8-.3l8.7-4.8c.1-.1.2-.1.2-.2l-4.9-2.9zm15.4 9c-.1-.1-.2-.1-.3-.2-.1 0-.1-.1-.1-.1v-.1s0-.1-.1-.1v-.2l.1-2.3-.9.5c-.1.1-.2.1-.3.2-.1 0-.2.1-.3.1h-1.9c-.2-.1-.3-.1-.5-.2l-5.7-3.3-.1 2c0 .3-.2.7-.7.9l-7.5 4.2c.1.1.2.3.4.4l10.8 6.3c.2.1.4.2.7.3h.1c.2.1.5.1.8.1.3 0 .6 0 .8-.1.3-.1.5-.2.7-.3l8.7-4.8c.1-.1.2-.1.2-.2l-4.9-3.1zm15.4 9c-.1-.1-.2-.1-.3-.2-.1 0-.1-.1-.1-.2v-.1s0-.1-.1-.1v-.2l.1-2.3-.9.5c-.1.1-.2.1-.3.2-.1 0-.2.1-.3.1h-2.1c-.2-.1-.3-.1-.5-.2l-5.6-3.3-.1 2c0 .3-.2.7-.7.9l-7.5 4.2c.1.1.2.3.4.4l10.8 6.3c.2.1.4.2.7.3h.1c.2.1.5.1.8.1.3 0 .6 0 .8-.1.3-.1.5-.2.7-.3l8.7-4.8c.1-.1.2-.1.2-.2l-4.8-3zm15.4 8.9c-.1-.1-.2-.1-.3-.2l-.1-.1v-.1s0-.1-.1-.1v-.2l.1-2.3-.9.5c-.1.1-.2.1-.3.2-.1 0-.2.1-.3.1H342c-.2-.1-.3-.1-.5-.2l-5.7-3.3-.1 2c0 .3-.2.7-.7.9l-7.5 4.2c.1.1.2.3.4.4l10.8 6.3c.2.1.4.2.7.3h.1c.3.1.5.1.8.1.3 0 .6 0 .8-.1.3-.1.5-.2.8-.3l8.7-4.8c.1-.1.2-.1.2-.2l-5-3.1c0 .1 0 0 0 0zm15.4 9c-.1-.1-.2-.1-.3-.2 0-.1-.1-.1-.1-.1v-.1s0-.1-.1-.1v-.2l.1-2.3-.9.5c-.1.1-.2.1-.3.2-.1 0-.2.1-.3.1h-2c-.2-.1-.3-.1-.5-.2l-5.7-3.3-.1 2c0 .3-.2.7-.7.9l-7.5 4.2c.1.1.2.3.4.4l10.8 6.3c.2.1.4.2.7.3h.1c.2.1.5.1.8.1.3 0 .6 0 .8-.1.3-.1.5-.2.7-.3l8.7-4.8c.1-.1.2-.1.2-.2l-4.8-3.1zm15.4 9c-.1-.1-.2-.1-.3-.2 0-.1-.1-.1-.1-.2v-.1s0-.1-.1-.1v-.2l.1-2.3-.9.5c-.1.1-.2.1-.3.2-.1 0-.2.1-.3.1h-1.8c-.1 0-.1 0-.2-.1-.2-.1-.3-.1-.5-.2l-5.7-3.3-.1 2c0 .3-.3.7-.7.9l-7.5 4.2c.1.1.2.3.4.4l10.8 6.3c.2.1.4.2.7.3h.1c.2.1.5.1.8.1.3 0 .6 0 .8-.1.3-.1.5-.2.7-.3l8.7-4.8c.1-.1.2-.1.2-.2l-4.8-2.9zm15.5 9c-.1-.1-.2-.1-.3-.2-.1 0-.1-.1-.1-.1v-.1s0-.1-.1-.1v-.2l.1-2.4-.9.5c-.1.1-.2.1-.3.2-.1 0-.2.1-.3.1h-1.7c-.1 0-.1 0-.2-.1-.2-.1-.3-.1-.5-.2l-5.7-3.3-.1 2c0 .3-.2.7-.7.9l-7.5 4.2c.1.1.2.3.4.4l10.8 6.3c.2.1.4.2.7.3h.1c.2.1.5.1.8.1.3 0 .6 0 .8-.1.3-.1.5-.2.7-.3l8.7-4.8c.1-.1.2-.1.2-.2l-4.9-2.9zm15.4 9c-.1-.1-.2-.1-.3-.2-.1 0-.1-.1-.1-.1v-.1s0-.1-.1-.1v-.2l.1-2.3-.9.5c-.1.1-.2.1-.3.2-.1 0-.2.1-.3.1h-1.8c-.1 0-.1 0-.2-.1-.2-.1-.3-.1-.5-.2l-5.7-3.3-.1 2c0 .3-.2.7-.7.9l-7.5 4.2.4.4 10.8 6.3c.2.1.4.2.7.3h.1c.2.1.5.1.8.1.3 0 .6 0 .8-.1.3-.1.5-.2.7-.3l8.7-4.8c.1-.1.2-.1.2-.2l-4.8-3zm15.4 9c-.1-.1-.2-.1-.3-.2 0-.1-.1-.1-.1-.2v-.1s0-.1-.1-.1v-.2l.1-2.3-.9.5c-.1.1-.2.1-.3.2-.1 0-.2.1-.3.1h-1.8c-.1 0-.1 0-.2-.1-.2-.1-.3-.1-.5-.2l-5.7-3.3-.1 2c0 .3-.2.7-.7.9l-7.5 4.2c.1.1.2.3.4.4l10.8 6.3c.2.1.4.2.7.3h.1c.2.1.5.1.8.1.3 0 .6 0 .8-.1.3-.1.5-.2.7-.3l8.7-4.8c.1-.1.2-.1.2-.2l-4.8-2.9zm15.4 8.9c-.1-.1-.2-.1-.3-.2l-.1-.1v-.1s0-.1-.1-.1v-.2l.1-2.3-.9.5c-.1.1-.2.1-.3.2-.1 0-.2.1-.3.1h-1.9c-.2-.1-.3-.1-.5-.2l-5.7-3.3-.1 2c0 .3-.2.7-.7.9L420 508l.4.4 10.8 6.3c.2.1.4.2.7.3h.1c.3.1.5.1.8.1.3 0 .6 0 .8-.1.3-.1.5-.2.8-.3l8.7-4.8c.1-.1.2-.1.2-.2l-5-3.1zm30.8 18c-.1-.1-.2-.1-.3-.2-.1-.1-.1-.1-.1-.2v-.1s0-.1-.1-.1v-.2l.1-2.3-.9.5c-.1.1-.2.1-.3.2-.1 0-.2.1-.3.1h-1.7c-.1 0-.1 0-.2-.1-.2-.1-.3-.1-.5-.2l-5.7-3.3-.1 2c0 .3-.2.7-.7.9l-7.5 4.2.4.4 10.8 6.3c.2.1.4.2.7.3h.1c.2.1.5.1.8.1.3 0 .6 0 .8-.1.3-.1.5-.2.7-.3l8.7-4.8c.1-.1.2-.1.2-.2l-4.9-2.9zm-15.4-9c-.1-.1-.2-.1-.3-.2-.1 0-.1-.1-.1-.1v-.1s0-.1-.1-.1v-.2l.1-2.3-.9.5c-.1.1-.2.1-.3.2-.1 0-.2.1-.3.1H450c-.1 0-.1 0-.2-.1-.2-.1-.3-.1-.5-.2l-5.7-3.3-.1 2c0 .3-.2.7-.7.9l-7.5 4.2c.1.1.2.3.4.4l10.8 6.3c.2.1.4.2.7.3h.1c.2.1.5.1.8.1.3 0 .6 0 .8-.1.3-.1.5-.2.7-.3l8.7-4.8c.1-.1.2-.1.2-.2l-4.8-3zm-18.3 4.5c-.1-.1-.2-.1-.3-.2l-.1-.1v-.1s0-.1-.1-.1v-.2l.1-2.3-.9.5c-.1.1-.2.1-.3.2-.1 0-.2.1-.3.1h-2.1c-.2-.1-.3-.1-.5-.2l-8.6-5-.1 2c0 .3-.3.7-.7.9l-7.5 4.2c.1.1.2.3.4.4l10.8 6.3c.2.1.4.2.7.3h.1c.3.1.5.1.8.1.3 0 .6 0 .8-.1.3-.1.5-.2.7-.3l8.7-4.8c.1-.1.2-.1.3-.2l-1.9-1.4zm-5.6 11.9c-.1-.1-.2-.1-.3-.2-.1 0-.1-.1-.1-.1v-.1s0-.1-.1-.1v-.2l.1-2.6-1.1.6c-.1.1-.2.1-.3.2-.1 0-.2.1-.3.1h-2.1c-.2-.1-.3-.1-.5-.2l-5.7-3.3-.1 2c0 .3-.2.7-.7.9l-7.5 4.2c.1.1.2.3.4.4l10.8 6.3c.2.1.4.2.7.3h.1c.3.1.5.1.8.1.3 0 .6 0 .8-.1.3-.1.5-.2.7-.3l8.7-4.8c.1-.1.2-.1.2-.2l-4.5-2.9zm4.8 4.8c0 .3-.2.7-.7.9l-7.5 4.2c.1.1.2.3.4.4l13.4 7.8c.2.1.4.2.7.3h.1c.2.1.5.1.8.1.3 0 .6 0 .8-.1.3-.1.5-.2.8-.3l8.7-4.8c.1-.1.2-.1.2-.2l-17.6-10.2-.1 1.9zm-8 8.5c-.1-.1-.2-.1-.3-.2-.1 0-.1-.1-.1-.1v-.1s0-.1-.1-.1v-.2l.1-2.3-.9.5c-.1.1-.2.1-.3.2-.1 0-.2.1-.3.1H423c-.1 0-.1 0-.2-.1-.2-.1-.3-.1-.5-.2l-10.8-6.3c-.1 0-.1-.1-.2-.2l-.1 2c0 .3-.2.7-.7.9l-7.4 4.1v.1c.1.2.3.3.5.4l23.5 13.7c.2.1.4.2.7.3h.1c.3.1.5.1.8.1.3 0 .6 0 .8-.1.3-.1.5-.2.7-.3l8.7-4.8.2-.2-12.5-7.2zm-18.7 6.4c0 .3-.3.7-.7.9l-7.5 4.2c.1.1.2.3.4.4l10.8 6.3c.2.1.4.2.7.3h.1c.2.1.5.1.8.1.3 0 .6 0 .8-.1.3-.1.5-.2.7-.3l8.7-4.8c.2-.1.2-.2.4-.3l-15.1-8.8-.1 2.1zm4.5 15.1s-.1 0 0 0h-1.3c-.2-.1-.3-.1-.5-.2l-10.8-6.3c-.1-.1-.2-.1-.2-.2l-.1 2.1c0 .3-.2.7-.7.9l-7.5 4.2c.1.1.2.3.4.4l8.3 4.9c.2.1.4.2.7.3h.1c.2.1.5.1.8.1.3 0 .6 0 .8-.1.3-.1.5-.2.8-.3l8.7-4.8c.4-.2.6-.5.6-.8 0-.2 0-.2-.1-.2zm-13.1-7.4v-.1l.1-2.3-.9.5c-.1.1-.2.1-.3.2-.1 0-.2.1-.3.1h-2c-.2-.1-.3-.1-.5-.2l-10.8-6.3c-.1-.1-.2-.1-.2-.2l-.1 2.1c0 .3-.2.7-.7.9l-7.5 4.2c.1.1.2.3.4.4l10.8 6.3c.2.1.4.2.7.3h.1c.2.1.5.1.8.1.3 0 .6 0 .8-.1.3-.1.5-.2.8-.3l8.7-4.8c.2-.1.3-.2.4-.3 0 0 0-.1-.1-.1-.2-.3-.2-.3-.2-.4zm-15.4-8.9v-.1l.1-2.3-.9.5c-.1.1-.2.1-.3.2-.1 0-.2.1-.3.1h-1.8c-.1 0-.1 0-.2-.1-.2-.1-.3-.1-.5-.2l-10.8-6.3c-.1-.1-.2-.1-.2-.2l-.1 2.1c0 .3-.2.7-.7.9l-7.5 4.2c.1.1.2.3.4.4l10.8 6.3c.2.1.4.2.7.3h.1c.2.1.5.1.8.1.3 0 .6 0 .8-.1.3-.1.5-.2.8-.3l8.7-4.8c.2-.1.3-.2.4-.3v-.1l-.3-.3zm-15.4-9v-.1l.1-2.3-.9.5c-.1.1-.2.1-.3.2-.1 0-.2.1-.3.1h-1.8c-.1 0-.1 0-.2-.1-.2-.1-.3-.1-.5-.2l-10.8-6.3c-.1-.1-.2-.1-.2-.2l-.1 2.1c0 .3-.2.7-.7.9l-7.5 4.2c.1.1.2.3.4.4l10.8 6.3c.2.1.4.2.7.3h.1c.2.1.5.1.8.1.3 0 .6 0 .8-.1.3-.1.5-.2.7-.3l8.7-4.8c.2-.1.3-.2.4-.3v-.1c-.2-.2-.2-.3-.2-.3zm-15.4-9v-.1l.1-2.3-.9.5c-.1.1-.2.1-.3.2-.1 0-.2.1-.3.1H350c-.1 0-.1 0-.2-.1-.2-.1-.3-.1-.5-.2l-10.8-6.3c-.1-.1-.2-.1-.2-.2l-.1 2.1c0 .3-.2.7-.7.9l-7.5 4.2.4.4 10.8 6.3c.2.1.4.2.7.3h.1c.3.1.5.1.8.1.3 0 .6 0 .8-.1.3-.1.5-.2.8-.3l8.7-4.8c.2-.1.3-.2.4-.3v-.1c-.4-.2-.4-.3-.4-.3z"/><path class="st1" d="M337.7 523.5v-.1l.1-2.3-.9.5c-.1.1-.2.1-.3.2-.1 0-.2.1-.3.1h-2.1c-.2-.1-.3-.1-.5-.2l-10.8-6.3c-.1-.1-.2-.1-.3-.2 0 0-.1-.1-.1-.2v-.1s0-.1-.1-.1v-.2l.1-2.4-.9.5c-.1.1-.2.1-.3.2-.1 0-.2.1-.3.1h-1.9c-.2-.1-.3-.1-.5-.2l-10.8-6.3c-.1-.1-.2-.1-.3-.2-.1 0-.1-.1-.1-.1v-.2s0-.1-.1-.1v-.2l.1-2.3-.9.5c-.1.1-.2.1-.3.2-.1 0-.2.1-.3.1h-2c-.2-.1-.3-.1-.5-.2l-10.8-6.3c-.1-.1-.2-.1-.3-.2-.1 0-.1-.1-.1-.1v-.1s0-.1-.1-.1v-.2l.1-2.3-.9.5c-.1.1-.2.1-.3.2-.1 0-.2.1-.3.1h-2.6c-.1 0-.1 0-.2-.1-.2-.1-.3-.1-.5-.2l-10.8-6.3c-.1-.1-.2-.1-.3-.2 0 0-.1-.1-.1-.2v-.1s0-.1-.1-.1v-.2l.1-2.3-.9.5c-.1.1-.2.1-.3.2-.1 0-.2.1-.3.1H273c-.1 0-.1 0-.2-.1-.2-.1-.3-.1-.5-.2l-10.8-6.3c-.1-.1-.2-.1-.2-.2l-.1 2.1c0 .3-.2.7-.7.9L253 487c.1.1.2.3.4.4l72.4 42.2c.2.1.4.2.7.3h.1c.3.1.5.1.8.1.3 0 .6 0 .8-.1.3-.1.5-.2.7-.3l8.7-4.8c.2-.1.3-.2.4-.3 0 0 0-.1-.1-.1-.2-.8-.2-.8-.2-.9zm-77.1-44.9v-.1l.1-2.3-.9.5c-.1.1-.2.1-.3.2-.1 0-.2.1-.3.1h-1.8c-.1 0-.1 0-.2-.1-.2-.1-.3-.1-.5-.2l-11-6.4-.1 2c0 .3-.3.7-.7.9l-7.5 4.2c.1.1.2.3.4.4l10.8 6.3c.2.1.4.2.7.3h.1c.3.1.5.1.8.1.3 0 .6 0 .8-.1.3-.1.5-.2.8-.3l8.7-4.8c.2-.1.3-.2.4-.3v-.1c-.3-.2-.3-.2-.3-.3zm-21.7-12.2c-.1-.1-.2-.1-.3-.2-.1 0-.1-.1-.1-.1v-.1s0-.1-.1-.1v-.2l.1-2.6-1.1.6c-.1.1-.2.1-.3.1-.1 0-.2.1-.3.1h-2.1c-.2-.1-.3-.1-.5-.2l-4.1-2.4-.1 2c0 .3-.2.7-.7.9l-7.5 4.2v.1c.1.2.3.3.5.4L233 475c.2.1.4.2.7.3h.1c.2.1.5.1.8.1.3 0 .6 0 .8-.1.3-.1.5-.2.7-.3l8.7-4.8c.1-.1.2-.1.3-.2l-6.2-3.6z"/><path class="st1" d="M264.2 465.8c-.1-.1-.2-.1-.3-.2-.1-.1-.1-.1-.1-.2v-.1s0-.1-.1-.1v-.2l.1-2.3-.9.5c-.1.1-.2.1-.3.2-.1 0-.2.1-.3.1h-1.9c-.2-.1-.3-.1-.5-.2l-10.8-6.3c-.1-.1-.2-.1-.3-.2-.1 0-.1-.1-.1-.2v-.1s0-.1-.1-.1v-.2l.1-2.5-1.1.6c-.1.1-.2.1-.3.2-.1 0-.2.1-.3.1h-2.1c-.2-.1-.3-.1-.5-.2l-8.9-5.2-.1 2.2c0 .3-.3.7-.7.9l-7.2 4c0 .1 0 .3.1.4.1.1.3.3.5.4l6.4 3.7c.2.1.4.2.7.3h.1c.3.1.5.1.8.1.3 0 .6 0 .8-.1.3-.1.5-.2.7-.3l8.7-4.8c.5-.3.7-.6.7-.9l-.1 3c0 .3-.3.7-.7.9l-7.4 4.1v.1c.1.1.3.3.5.4l17.6 10.3c.2.1.4.2.7.3h.1c.3.1.5.1.8.1.3 0 .6 0 .8-.1.3-.1.5-.2.7-.3l8.7-4.8c.2-.1.2-.2.4-.3l-4.9-3zm-34.4-20c-.1-.1-.2-.1-.3-.2-.1 0-.1-.1-.1-.1v-.1s0-.1-.1-.1v-.2l.1-2.8-1.4.8c-.1.1-.2.1-.3.2-.1 0-.2.1-.3.1h-1.9c-.2-.1-.3-.1-.5-.2l-.4-.2-.1 2.1c0 .3-.2.7-.7.9l-7.5 4.2c.1.1.3.3.5.4l6.1 3.5c.2.1.4.2.7.3h.1c.3.1.5.1.8.1.3 0 .6 0 .8-.1.3-.1.5-.2.7-.3l8.7-4.8c.2-.1.2-.2.4-.3l-5.3-3.2zm-16.7-9.7c-.1-.1-.2-.1-.3-.2-.1 0-.1-.1-.1-.1v-.1s0-.1-.1-.1v-.2l.1-2.3-.9.5c-.1.1-.2.1-.3.2-.1 0-.2.1-.3.1h-1.9c-.2-.1-.3-.1-.5-.2l-.7-.4-.1 2.1c0 .3-.3.7-.7.9l-7.6 4.2c.1 0 .1.1.2.1l12.3 7.2c.2.1.4.2.7.3h.1c.3.1.5.1.8.1.3 0 .6 0 .8-.1.3-.1.5-.2.7-.3l8.7-4.8c.1-.1.2-.2.3-.2l-11.2-6.7z"/><path class="st5" d="M276.4 395.6l-10.8-6.3c-.9-.5-2.3-.5-3.2 0l-8.7 4.8c-.9.5-1 1.3-.1 1.8l10.8 6.3c.9.5 2.3.5 3.2 0l8.7-4.8c.9-.5.9-1.3.1-1.8zm15.1 8.8l-10.8-6.3c-.9-.5-2.3-.5-3.2 0l-8.7 4.8c-.9.5-1 1.3-.1 1.8l10.8 6.3c.9.5 2.3.5 3.2 0l8.7-4.8c.9-.5.9-1.3.1-1.8zm15.4 9l-10.8-6.3c-.9-.5-2.3-.5-3.2 0l-8.7 4.8c-.9.5-.9 1.3-.1 1.8l10.8 6.3c.9.5 2.3.5 3.2 0l8.7-4.8c.9-.5.9-1.3.1-1.8zm15.5 9l-10.8-6.3c-.9-.5-2.3-.5-3.2 0l-8.7 4.8c-.9.5-1 1.3-.1 1.8l10.8 6.3c.9.5 2.3.5 3.2 0l8.7-4.8c1-.4 1-1.3.1-1.8zm15.4 9l-10.8-6.3c-.9-.5-2.3-.5-3.2 0l-8.7 4.8c-.9.5-.9 1.3-.1 1.8l10.8 6.3c.9.5 2.3.5 3.2 0l8.7-4.8c1-.5 1-1.3.1-1.8zm15.5 9l-10.8-6.3c-.9-.5-2.3-.5-3.2 0l-8.7 4.8c-.9.5-1 1.3-.1 1.8l10.8 6.3c.9.5 2.3.5 3.2 0l8.7-4.8c.9-.5.9-1.3.1-1.8zm15.4 9l-10.8-6.3c-.9-.5-2.3-.5-3.2 0l-8.7 4.8c-.9.5-1 1.3-.1 1.8l10.8 6.3c.9.5 2.3.5 3.2 0l8.7-4.8c.9-.5.9-1.3.1-1.8zm15.4 9l-10.8-6.3c-.9-.5-2.3-.5-3.2 0l-8.7 4.8c-.9.5-.9 1.3-.1 1.8l10.8 6.3c.9.5 2.3.5 3.2 0l8.7-4.8c.9-.5.9-1.3.1-1.8zm15.4 8.9l-10.8-6.3c-.9-.5-2.3-.5-3.2 0l-8.7 4.8c-.9.5-1 1.3-.1 1.8l10.8 6.3c.9.5 2.3.5 3.2 0l8.7-4.8c.9-.4 1-1.3.1-1.8zm15.4 9l-10.8-6.3c-.9-.5-2.3-.5-3.2 0l-8.7 4.8c-.9.5-1 1.3-.1 1.8L403 483c.9.5 2.3.5 3.2 0l8.7-4.8c.9-.5.9-1.4 0-1.9zm15.4 9l-10.8-6.3c-.9-.5-2.3-.5-3.2 0l-8.7 4.8c-.9.5-1 1.3-.1 1.8l10.8 6.3c.9.5 2.3.5 3.2 0l8.7-4.8c1-.5 1-1.3.1-1.8zm15.5 9L435 488c-.9-.5-2.3-.5-3.2 0l-8.7 4.8c-.9.5-1 1.3-.1 1.8l10.8 6.3c.9.5 2.3.5 3.2 0l8.7-4.8c.9-.5.9-1.3.1-1.8zm15.4 9l-10.8-6.3c-.9-.5-2.3-.5-3.2 0l-8.7 4.8c-.9.5-.9 1.3-.1 1.8l10.8 6.3c.9.5 2.3.5 3.2 0l8.7-4.8c.9-.5.9-1.3.1-1.8zm15.4 8.9l-10.8-6.3c-.9-.5-2.3-.5-3.2 0l-8.7 4.8c-.9.5-1 1.3-.1 1.8l10.8 6.3c.9.5 2.3.5 3.2 0l8.7-4.8c.9-.4 1-1.2.1-1.8zm15.4 9l-10.8-6.3c-.9-.5-2.3-.5-3.2 0l-8.7 4.8c-.9.5-1 1.3-.1 1.8l10.8 6.3c.9.5 2.3.5 3.2 0l8.7-4.8c.9-.5 1-1.3.1-1.8zM288.6 417.9l-36.3-21.2c-.9-.5-2.3-.5-3.2 0l-8.7 4.8c-.9.5-.9 1.3-.1 1.8l36.3 21.1c.9.5 2.3.5 3.2 0l8.7-4.8c.9-.4 1-1.2.1-1.7zm15.5 9l-10.8-6.3c-.9-.5-2.3-.5-3.2 0l-8.7 4.8c-.9.5-.9 1.3-.1 1.8l10.8 6.3c.9.5 2.3.5 3.2 0l8.7-4.8c1-.5 1-1.3.1-1.8zm15.4 9l-10.8-6.3c-.9-.5-2.3-.5-3.2 0l-8.7 4.8c-.9.5-.9 1.3-.1 1.8l10.8 6.3c.9.5 2.3.5 3.2 0l8.7-4.8c1-.5 1-1.3.1-1.8zm15.4 9l-10.8-6.3c-.9-.5-2.3-.5-3.2 0l-8.7 4.8c-.9.5-.9 1.3-.1 1.8l10.8 6.3c.9.5 2.3.5 3.2 0l8.7-4.8c1-.5 1-1.3.1-1.8zm15.4 8.9l-10.8-6.3c-.9-.5-2.3-.5-3.2 0l-8.7 4.8c-.9.5-.9 1.3-.1 1.8l10.8 6.3c.9.5 2.3.5 3.2 0l8.7-4.8c1-.4 1-1.2.1-1.8zm15.5 9l-10.8-6.3c-.9-.5-2.3-.5-3.2 0l-8.7 4.8c-.9.5-1 1.3-.1 1.8l10.8 6.3c.9.5 2.3.5 3.2 0l8.7-4.8c.9-.5.9-1.3.1-1.8zm15.4 9l-10.8-6.3c-.9-.5-2.3-.5-3.2 0l-8.7 4.8c-.9.5-.9 1.3-.1 1.8l10.8 6.3c.9.5 2.3.5 3.2 0l8.7-4.8c.9-.5.9-1.3.1-1.8zm15.4 9l-10.8-6.3c-.9-.5-2.3-.5-3.2 0l-8.7 4.8c-.9.5-.9 1.3-.1 1.8l10.8 6.3c.9.5 2.3.5 3.2 0l8.7-4.8c1-.5 1-1.3.1-1.8zm15.4 9l-10.8-6.3c-.9-.5-2.3-.5-3.2 0l-8.7 4.8c-.9.5-.9 1.3-.1 1.8l10.8 6.3c.9.5 2.3.5 3.2 0l8.7-4.8c1-.5 1-1.3.1-1.8zm15.4 9l-10.8-6.3c-.9-.5-2.3-.5-3.2 0l-8.7 4.8c-.9.5-.9 1.3-.1 1.8l10.8 6.3c.9.5 2.3.5 3.2 0l8.7-4.8c1-.5 1-1.3.1-1.8zm15.4 8.9l-10.8-6.3c-.9-.5-2.3-.5-3.2 0l-8.7 4.8c-.9.5-.9 1.3-.1 1.8l10.8 6.3c.9.5 2.3.5 3.2 0l8.7-4.8c1-.4 1-1.3.1-1.8zm15.5 9l-10.8-6.3c-.9-.5-2.3-.5-3.2 0l-8.7 4.8c-.9.5-.9 1.3-.1 1.8l10.8 6.3c.9.5 2.3.5 3.2 0l8.7-4.8c.9-.5.9-1.3.1-1.8zm15.4 9l-10.8-6.3c-.9-.5-2.3-.5-3.2 0l-8.7 4.8c-.9.5-.9 1.3-.1 1.8l10.8 6.3c.9.5 2.3.5 3.2 0l8.7-4.8c.9-.5.9-1.3.1-1.8zM250.6 411l-11.6-6.8c-.9-.5-2.3-.5-3.2 0l-8.7 4.8c-.9.5-.9 1.3-.1 1.8l11.6 6.8c.9.5 2.3.5 3.2 0l8.7-4.8c.9-.5.9-1.3.1-1.8zm16 9.3l-11.6-6.8c-.9-.5-2.3-.5-3.2 0l-8.7 4.8c-.9.5-.9 1.3-.1 1.8l11.6 6.8c.9.5 2.3.5 3.2 0l8.7-4.8c.9-.5 1-1.3.1-1.8zm-32.9-3.9l-8.2-4.8c-.9-.5-2.3-.5-3.2 0l-21.9 12.2c-.9.5-.9 1.3-.1 1.8l8.1 4.8c.9.5 2.3.5 3.2 0l21.9-12.2c1.1-.5 1.1-1.3.2-1.8zm16.3 9.5l-11.6-6.8c-.9-.5-2.3-.5-3.2 0l-8.7 4.8c-.9.5-1 1.3-.1 1.8l11.6 6.8c.9.5 2.3.5 3.2 0l8.7-4.8c1-.5 1-1.3.1-1.8zm48.3 12.8l-10.8-6.3c-.9-.5-2.3-.5-3.2 0l-8.7 4.8c-.9.5-1 1.3-.1 1.8l10.8 6.3c.9.5 2.3.5 3.2 0l8.7-4.8c.9-.5.9-1.3.1-1.8z"/><path class="st5" d="M282.7 429.6l-10.8-6.3c-.9-.5-2.3-.5-3.2 0l-13.3 7.4-3.2 1.8-5.5 3.1c-.9.5-.9 1.3-.1 1.8l21.3 12.4c.9.5 2.3.5 3.2 0l8.7-4.8c.9-.5.9-1.3.1-1.8l-9-5.2 11.6-6.5c1-.6 1.1-1.4.2-1.9zm31 18.1l-10.8-6.3c-.9-.5-2.3-.5-3.2 0l-8.7 4.8c-.9.5-.9 1.3-.1 1.8l10.8 6.3c.9.5 2.3.5 3.2 0l8.7-4.8c.9-.5.9-1.4.1-1.8zm15.4 8.9l-10.8-6.3c-.9-.5-2.3-.5-3.2 0l-8.7 4.8c-.9.5-.9 1.3-.1 1.8l10.8 6.3c.9.5 2.3.5 3.2 0l8.7-4.8c.9-.4.9-1.3.1-1.8zm15.4 9l-10.8-6.3c-.9-.5-2.3-.5-3.2 0l-8.7 4.8c-.9.5-.9 1.3-.1 1.8l10.8 6.3c.9.5 2.3.5 3.2 0l8.7-4.8c.9-.5 1-1.3.1-1.8zm15.4 9l-10.8-6.3c-.9-.5-2.3-.5-3.2 0l-8.7 4.8c-.9.5-.9 1.3-.1 1.8l10.8 6.3c.9.5 2.3.5 3.2 0l8.7-4.8c.9-.5 1-1.3.1-1.8zm15.4 9l-10.8-6.3c-.9-.5-2.3-.5-3.2 0l-8.7 4.8c-.9.5-.9 1.3-.1 1.8l10.8 6.3c.9.5 2.3.5 3.2 0l8.7-4.8c.9-.5 1-1.3.1-1.8zm15.5 9l-10.8-6.3c-.9-.5-2.3-.5-3.2 0l-8.7 4.8c-.9.5-.9 1.3-.1 1.8l10.8 6.3c.9.5 2.3.5 3.2 0l8.7-4.8c.9-.5.9-1.3.1-1.8zm15.4 8.9l-10.8-6.3c-.9-.5-2.3-.5-3.2 0l-8.7 4.8c-.9.5-.9 1.3-.1 1.8l10.8 6.3c.9.5 2.3.5 3.2 0l8.7-4.8c.9-.4.9-1.3.1-1.8zm15.4 9l-10.8-6.3c-.9-.5-2.3-.5-3.2 0l-8.7 4.8c-.9.5-.9 1.3-.1 1.8l10.8 6.3c.9.5 2.3.5 3.2 0l8.7-4.8c.9-.5.9-1.3.1-1.8zm15.4 9l-10.8-6.3c-.9-.5-2.3-.5-3.2 0l-8.7 4.8c-.9.5-.9 1.3-.1 1.8l10.8 6.3c.9.5 2.3.5 3.2 0l8.7-4.8c.9-.5.9-1.3.1-1.8zm28.4 16.6l-23.5-13.7c-.9-.5-2.3-.5-3.2 0l-8.7 4.8c-.9.5-.9 1.3-.1 1.8l23.5 13.7c.9.5 2.3.5 3.2 0l8.7-4.8c.9-.5.9-1.4.1-1.8zm-170.1-84l-10.8-6.3c-.9-.5-2.3-.5-3.2 0l-8.7 4.8c-.9.5-.9 1.3-.1 1.8l10.8 6.3c.9.5 2.3.5 3.2 0l8.7-4.8c1-.4 1-1.3.1-1.8zm15.5 9l-10.8-6.3c-.9-.5-2.3-.5-3.2 0l-8.7 4.8c-.9.5-1 1.3-.1 1.8l10.8 6.3c.9.5 2.3.5 3.2 0l8.7-4.8c.9-.5.9-1.3.1-1.8zm15.4 9l-10.8-6.3c-.9-.5-2.3-.5-3.2 0l-8.7 4.8c-.9.5-1 1.3-.1 1.8l10.8 6.3c.9.5 2.3.5 3.2 0l8.7-4.8c.9-.5.9-1.3.1-1.8zm15.4 9l-10.8-6.3c-.9-.5-2.3-.5-3.2 0l-8.7 4.8c-.9.5-.9 1.3-.1 1.8l10.8 6.3c.9.5 2.3.5 3.2 0l8.7-4.8c.9-.5.9-1.3.1-1.8zM357 488l-10.8-6.3c-.9-.5-2.3-.5-3.2 0l-8.7 4.8c-.9.5-1 1.3-.1 1.8l10.8 6.3c.9.5 2.3.5 3.2 0l8.7-4.8c.9-.4.9-1.3.1-1.8zm15.4 9l-10.8-6.3c-.9-.5-2.3-.5-3.2 0l-8.7 4.8c-.9.5-.9 1.3-.1 1.8l10.8 6.3c.9.5 2.3.5 3.2 0l8.7-4.8c1-.4 1-1.3.1-1.8zm15.4 9l-10.8-6.3c-.9-.5-2.3-.5-3.2 0l-8.7 4.8c-.9.5-1 1.3-.1 1.8l10.8 6.3c.9.5 2.3.5 3.2 0l8.7-4.8c1-.5 1-1.3.1-1.8zm15.5 9l-10.8-6.3c-.9-.5-2.3-.5-3.2 0l-8.7 4.8c-.9.5-.9 1.3-.1 1.8l10.8 6.3c.9.5 2.3.5 3.2 0l8.7-4.8c.9-.5.9-1.3.1-1.8zm15.4 9l-10.8-6.3c-.9-.5-2.3-.5-3.2 0l-8.7 4.8c-.9.5-1 1.3-.1 1.8l10.8 6.3c.9.5 2.3.5 3.2 0l8.7-4.8c.9-.5.9-1.3.1-1.8zm15.4 9l-10.8-6.3c-.9-.5-2.3-.5-3.2 0l-8.7 4.8c-.9.5-1 1.3-.1 1.8l10.8 6.3c.9.5 2.3.5 3.2 0l8.7-4.8c.9-.5.9-1.3.1-1.8zm18 10.5l-13.4-7.8c-.9-.5-2.3-.5-3.2 0l-8.7 4.8c-.9.5-.9 1.3-.1 1.8l13.4 7.8c.9.5 2.3.5 3.2 0l8.7-4.8c.9-.5 1-1.3.1-1.8zM236.8 433.2l-11.6-6.8c-.9-.5-2.3-.5-3.2 0l-8.7 4.8c-.9.5-1 1.3-.1 1.8l11.6 6.8c.9.5 2.3.5 3.2 0l8.7-4.8c.9-.4 1-1.3.1-1.8zm19.3 11.2l-14.2-8.3c-.9-.5-2.3-.5-3.2 0L230 441c-.9.5-.9 1.3-.1 1.8l14.2 8.3c.9.5 2.3.5 3.2 0l8.7-4.8c1-.6 1-1.4.1-1.9zm15.6 9.1l-10.8-6.3c-.9-.5-2.3-.5-3.2 0L249 452c-.9.5-.9 1.3-.1 1.8l10.8 6.3c.9.5 2.3.5 3.2 0l8.7-4.8c.9-.5 1-1.3.1-1.8zm15.4 9l-10.8-6.3c-.9-.5-2.3-.5-3.2 0l-8.7 4.8c-.9.5-.9 1.3-.1 1.8l10.8 6.3c.9.5 2.3.5 3.2 0l8.7-4.8c.9-.5 1-1.3.1-1.8zm15.4 8.9l-10.8-6.3c-.9-.5-2.3-.5-3.2 0l-8.7 4.8c-.9.5-.9 1.3-.1 1.8l10.8 6.3c.9.5 2.3.5 3.2 0l8.7-4.8c.9-.4 1-1.3.1-1.8zm15.4 9l-10.8-6.3c-.9-.5-2.3-.5-3.2 0l-8.7 4.8c-.9.5-.9 1.3-.1 1.8l10.8 6.3c.9.5 2.3.5 3.2 0l8.7-4.8c.9-.5 1-1.3.1-1.8zm15.4 9l-10.8-6.3c-.9-.5-2.3-.5-3.2 0l-8.7 4.8c-.9.5-.9 1.3-.1 1.8l10.8 6.3c.9.5 2.3.5 3.2 0l8.7-4.8c1-.5 1-1.3.1-1.8zm15.4 9l-10.8-6.3c-.9-.5-2.3-.5-3.2 0l-8.7 4.8c-.9.5-1 1.3-.1 1.8l10.8 6.3c.9.5 2.3.5 3.2 0l8.7-4.8c1-.5 1-1.3.1-1.8zm15.5 9l-10.8-6.3c-.9-.5-2.3-.5-3.2 0l-8.7 4.8c-.9.5-.9 1.3-.1 1.8l10.8 6.3c.9.5 2.3.5 3.2 0l8.7-4.8c.9-.5 1-1.3.1-1.8zm15.4 8.9l-10.8-6.3c-.9-.5-2.3-.5-3.2 0l-8.7 4.8c-.9.5-.9 1.3-.1 1.8l10.8 6.3c.9.5 2.3.5 3.2 0l8.7-4.8c.9-.4 1-1.3.1-1.8zm15.4 9l-10.8-6.3c-.9-.5-2.3-.5-3.2 0l-8.7 4.8c-.9.5-.9 1.3-.1 1.8L383 532c.9.5 2.3.5 3.2 0l8.7-4.8c.9-.6 1-1.4.1-1.9zm15.4 9l-10.8-6.3c-.9-.5-2.3-.5-3.2 0l-8.7 4.8c-.9.5-.9 1.3-.1 1.8l10.8 6.3c.9.5 2.3.5 3.2 0l8.7-4.8c.9-.5 1-1.3.1-1.8zm28.4 16.6l-23.5-13.7c-.9-.5-2.3-.5-3.2 0l-8.7 4.8c-.9.5-.9 1.3-.1 1.8l23.5 13.7c.9.5 2.3.5 3.2 0l8.7-4.8c.9-.5 1-1.3.1-1.8zM207.2 431.2l-8.2-4.7c-.9-.5-2.3-.5-3.2 0l-22 12.2c-.9.5-1 1.3-.1 1.8l8.1 4.7c.9.5 2.3.5 3.2 0l22-12.2c1-.5 1-1.3.2-1.8zm16.6 9.7l-12.3-7.2c-.9-.5-2.3-.5-3.2 0l-8.7 4.8c-.9.5-1 1.3-.1 1.8l12.3 7.2c.9.5 2.3.5 3.2 0l8.7-4.8c.9-.5.9-1.3.1-1.8zm10.8 6.3l-6.1-3.5c-.9-.5-2.3-.5-3.2 0l-8.7 4.8c-.9.5-.9 1.3-.1 1.8l6.1 3.5c.9.5 2.3.5 3.2 0l8.7-4.8c.9-.5 1-1.3.1-1.8zm11.5 6.7l-6.4-3.7c-.9-.5-2.3-.5-3.2 0l-8.7 4.8c-.9.5-.9 1.3-.1 1.8l6.4 3.7c.9.5 2.3.5 3.2 0l8.7-4.8c1-.5 1-1.3.1-1.8zm22.5 13.1L251 456.7c-.9-.5-2.3-.5-3.2 0l-8.7 4.8c-.9.5-.9 1.3-.1 1.8l17.6 10.3c.9.5 2.3.5 3.2 0l8.7-4.8c1-.5 1-1.3.1-1.8zm15.5 9l-10.8-6.3c-.9-.5-2.3-.5-3.2 0l-8.7 4.8c-.9.5-.9 1.3-.1 1.8l10.8 6.3c.9.5 2.3.5 3.2 0l8.7-4.8c.9-.5.9-1.3.1-1.8zm15.4 9l-10.8-6.3c-.9-.5-2.3-.5-3.2 0l-8.7 4.8c-.9.5-.9 1.3-.1 1.8l10.8 6.3c.9.5 2.3.5 3.2 0l8.7-4.8c.9-.5.9-1.3.1-1.8zm15.4 8.9l-10.8-6.3c-.9-.5-2.3-.5-3.2 0l-8.7 4.8c-.9.5-.9 1.3-.1 1.8l10.8 6.3c.9.5 2.3.5 3.2 0l8.7-4.8c.9-.4.9-1.3.1-1.8zm15.4 9l-10.8-6.3c-.9-.5-2.3-.5-3.2 0l-8.7 4.8c-.9.5-.9 1.3-.1 1.8l10.8 6.3c.9.5 2.3.5 3.2 0l8.7-4.8c.9-.5.9-1.3.1-1.8zm15.4 9l-10.8-6.3c-.9-.5-2.3-.5-3.2 0l-8.7 4.8c-.9.5-.9 1.3-.1 1.8l10.8 6.3c.9.5 2.3.5 3.2 0l8.7-4.8c1-.5 1-1.3.1-1.8zm15.4 9l-10.8-6.3c-.9-.5-2.3-.5-3.2 0l-8.7 4.8c-.9.5-1 1.3-.1 1.8l10.8 6.3c.9.5 2.3.5 3.2 0l8.7-4.8c1-.5 1-1.3.1-1.8zm15.5 9l-10.8-6.3c-.9-.5-2.3-.5-3.2 0l-8.7 4.8c-.9.5-.9 1.3-.1 1.8l10.8 6.3c.9.5 2.3.5 3.2 0l8.7-4.8c.9-.5.9-1.3.1-1.8zm15.4 8.9l-10.8-6.3c-.9-.5-2.3-.5-3.2 0l-8.7 4.8c-.9.5-.9 1.3-.1 1.8l10.8 6.3c.9.5 2.3.5 3.2 0l8.7-4.8c.9-.4.9-1.2.1-1.8zm15.4 9l-10.8-6.3c-.9-.5-2.3-.5-3.2 0l-8.7 4.8c-.9.5-.9 1.3-.1 1.8l10.8 6.3c.9.5 2.3.5 3.2 0l8.7-4.8c.9-.4.9-1.3.1-1.8zm15.4 9l-10.8-6.3c-.9-.5-2.3-.5-3.2 0l-8.7 4.8c-.9.5-.9 1.3-.1 1.8l10.8 6.3c.9.5 2.3.5 3.2 0l8.7-4.8c.9-.5.9-1.3.1-1.8zM214 450.3l-10.8-6.3c-.9-.5-2.3-.5-3.2 0l-8.7 4.8c-.9.5-1 1.3-.1 1.8L202 457c.9.5 2.3.5 3.2 0l8.7-4.8c.9-.5.9-1.4.1-1.9zm15.4 9l-10.8-6.3c-.9-.5-2.3-.5-3.2 0l-8.7 4.8c-.9.5-.9 1.3-.1 1.8l10.8 6.3c.9.5 2.3.5 3.2 0l8.7-4.8c.9-.5.9-1.3.1-1.8zm15.5 9.1l-10.8-6.3c-.9-.5-2.3-.5-3.2 0l-8.7 4.8c-.9.5-1 1.3-.1 1.8L233 475c.9.5 2.3.5 3.2 0l8.7-4.8c.9-.5.9-1.3 0-1.8zm15.5 9l-10.8-6.3c-.9-.5-2.3-.5-3.2 0l-8.7 4.8c-.9.5-.9 1.3-.1 1.8l10.8 6.3c.9.5 2.3.5 3.2 0l8.7-4.8c.9-.5.9-1.3.1-1.8zm77 44.9L265 480.1c-.9-.5-2.3-.5-3.2 0l-8.7 4.8c-.9.5-1 1.3-.1 1.8l72.4 42.2c.9.5 2.3.5 3.2 0l8.7-4.8c1-.5 1-1.3.1-1.8zm15.4 8.9l-10.8-6.3c-.9-.5-2.3-.5-3.2 0l-8.7 4.8c-.9.5-.9 1.3-.1 1.8l10.8 6.3c.9.5 2.3.5 3.2 0l8.7-4.8c1-.4 1-1.3.1-1.8zm15.5 9l-10.8-6.3c-.9-.5-2.3-.5-3.2 0l-8.7 4.8c-.9.5-1 1.3-.1 1.8l10.8 6.3c.9.5 2.3.5 3.2 0l8.7-4.8c.9-.4.9-1.3.1-1.8zm15.4 9l-10.8-6.3c-.9-.5-2.3-.5-3.2 0l-8.7 4.8c-.9.5-1 1.3-.1 1.8l10.8 6.3c.9.5 2.3.5 3.2 0l8.7-4.8c.9-.5.9-1.3.1-1.8zm15.4 9l-10.8-6.3c-.9-.5-2.3-.5-3.2 0l-8.7 4.8c-.9.5-.9 1.3-.1 1.8l10.8 6.3c.9.5 2.3.5 3.2 0l8.7-4.8c.9-.5 1-1.3.1-1.8zm13 7.6l-8.3-4.9c-.9-.5-2.3-.5-3.2 0l-8.7 4.8c-.9.5-.9 1.3-.1 1.8l8.3 4.9c.9.5 2.3.5 3.2 0l8.7-4.8c.9-.5.9-1.3.1-1.8z"/><path class="st10" d="M277 160.1v214.1L523.8 518V297.4c0-5.6-3-10.8-7.8-13.6L290.4 152.4c-5.9-3.5-13.4.8-13.4 7.7z"/><path class="st5" d="M288.7 367.4V164.9l223.4 130.2v202.5z"/><g opacity=".4"><path class="st10" d="M278.1 452.8c-5.5 12.5-20.1 18.3-32.6 12.8s-18.3-20.1-12.8-32.6c5.5-12.6 20.1-18.3 32.6-12.8 12.5 5.4 18.3 20 12.8 32.6zm156.4 47c-5.5 12.6-20.1 18.3-32.6 12.8s-18.3-20.1-12.8-32.6 20.1-18.3 32.6-12.8c12.5 5.4 18.3 20 12.8 32.6z"/><g class="rocket_cloud_5"><path class="st10" d="M270.8 412.9c0 13.7-11.1 24.8-24.8 24.8-13.7 0-24.8-11.1-24.8-24.8s11.1-24.8 24.8-24.8c13.7 0 24.8 11.1 24.8 24.8z"/></g><g class="rocket_cloud_5"><path class="st10" d="M514.5 486.2c-11.5 26.2-42 38.2-68.2 26.8-26.2-11.5-38.2-42-26.8-68.2 11.5-26.2 42-38.2 68.2-26.8 26.3 11.4 38.3 42 26.8 68.2z"/></g><g class="rocket_cloud_4"><path class="st10" d="M351 395.9c-10 22.9-36.7 33.4-59.6 23.4S258 382.6 268 359.7s36.7-33.4 59.6-23.4S361 373 351 395.9z"/></g><g class="rocket_cloud_4"><path class="st10" d="M358.2 428.2c0 25-20.3 45.3-45.3 45.3s-45.3-20.3-45.3-45.3c0-25 20.3-45.3 45.3-45.3s45.3 20.3 45.3 45.3z"/></g><g class="rocket_cloud_4"><path class="st10" d="M455.7 428.2c0 39.3-31.8 71.1-71.1 71.1s-71.1-31.8-71.1-71.1 31.8-71.1 71.1-71.1 71.1 31.8 71.1 71.1z"/></g><g class="rocket_cloud_4"><path class="st10" d="M207.5 390.6c-2.3 5.2-8.4 7.6-13.7 5.4-5.2-2.3-7.6-8.4-5.4-13.7 2.3-5.2 8.4-7.6 13.7-5.4 5.3 2.3 7.7 8.4 5.4 13.7z"/></g></g><path class="st18" d="M410.1 329.6c8.7 5.4 27.1 27.6 27.1 46.4 0 18.7-14.8 20.8-14.8 41.4 0 0-8.1-12.6-3.5-26.8 0 0-11.8 8.6-11.8 30.5s-16.9 36.2-26.7 41.1c0 0 17.9-14.9-1.3-40.2-13.4-17.8-27.6-24.1-25.2-49.4 0 0-9.9 19.1-2.3 32.5 0 0-20.6-22.9-5.3-55.6 15.5-32.7 47.2-30.1 63.8-19.9z"/><g class="rocket_bg"><path class="st19" d="M275.2 231.3c.1-.1.2-.1.4-.1h.1c.1 0 .3 0 .4.1 2.5 1.4 5.2 12.8 5.3 13.4l1.9 13.3 2.9 20.4 2.3 15.8-7.3-1.4-8.6-49.1c.6-8.4 1.5-11.8 2.6-12.4z"/></g><g class="rocket_bg"><path class="st7" d="M294.1 237.3c-.2 0-2.9-11.9-5.3-13.4-.3-.2-.6-.2-.9 0l-12.7 7.4c.1-.1.2-.1.4-.1h.1c.1 0 .3 0 .4.1 2.5 1.4 5.2 12.8 5.3 13.4l7.1 49.5 12.7-7.4-7.1-49.5z"/></g><g class="rocket_bg"><path class="st19" d="M283.3 258l53.6-25.2 7.1 62.4-57.7-16.7z"/></g><g class="rocket_bg"><path class="st10" d="M402.6 275.9c-5.9-1-12.5-2.5-19.9-4.8-2.4-.8-4.9-1.6-7.5-2.6-10.2-3.8-21.5-9.1-33.3-16.5-3.9-2.5-10.7 11.1-10.7 11.1 0 31.6 17.9 68.8 17.9 68.8 0 7.8 16.8 14.1 37.6 14.1s37.6-6.3 37.6-14.1c0 0 17.5-38.6 17.5-67.1.1 0-31.4 12.4-39.2 11.1z"/></g><g class="rocket_bg"><path class="st0" d="M413.6 50.2s-54.7-.4-56.2-1.4C341.5 91.9 323 162.6 330 243.9l1.2 18.4c4 3 111.1 0 111.1 0 7.8-78.2-6.8-156-28.7-212.1z"/></g><g class="rocket_bg"><path class="st20" d="M362.4 147.7c.1-.2.2-.5.3-.7-.1.3-.2.5-.3.7z"/></g><g class="rocket_bg"><path class="st20" d="M362 149.4c.1-.3.1-.5.2-.8-.1.3-.2.6-.2.8z"/></g><g class="rocket_bg"><path class="st20" d="M384.8 186.4c-.1 0-.3-.1-.4-.1.1 0 .2.1.4.1z"/></g><g class="rocket_bg"><path class="st20" d="M365.7 142.7c.2-.1.4-.3.6-.4-.2.1-.4.2-.6.4z"/></g><g class="rocket_bg"><path class="st20" d="M364.7 143.6c.1-.2.3-.3.5-.5l-.5.5z"/></g><g class="rocket_bg"><path class="st21" d="M385 186.4h-.2.2z"/></g><g class="rocket_bg"><path class="st21" d="M367.5 141.5l.6-.3-.6.3z"/></g><g class="rocket_bg"><path class="st21" d="M362.2 148.7s0-.1 0 0c.1-.3.1-.6.2-.9-.1.2-.1.5-.2.9z"/></g><g class="rocket_bg"><path class="st21" d="M362.7 147l.3-.9c-.1.4-.2.7-.3.9z"/></g><g class="rocket_bg"><path class="st21" d="M365.2 143.2l.5-.5c-.2.1-.3.3-.5.5z"/></g><g class="rocket_bg"><path class="st21" d="M366.2 142.3c.1 0 .1 0 0 0 .2-.2.4-.3.6-.4-.1.1-.3.2-.6.4z"/></g><g class="rocket_bg"><path class="st22" d="M368.1 141.3c.1 0 .1 0 0 0 .1 0 .1 0 0 0z"/></g><g class="rocket_bg"><path class="st22" d="M366.9 141.9c.2-.1.5-.2.7-.3-.3 0-.5.1-.7.3z"/></g><g class="rocket_bg"><path class="st23" d="M479 348.7h-.2.2z"/></g><g class="rocket_bg"><path class="st23" d="M478.4 348.9c-.1 0-.1 0 0 0-.1 0-.1 0 0 0z"/></g><g class="rocket_bg"><path class="st7" d="M478.3 348.9c-2.1 1.2-4 6.8-4.1 7.2l-2 11.1-50.4-82.2 12.7-7.4 43.8 71.3z"/></g><g class="rocket_bg"><path class="st19" d="M474.2 356c.1-.4 2-6 4.1-7.2.2-.1.3-.1.5-.2h.2c.2 0 .4 0 .6.2 1.5.8 2.8 5.1 3.3 16.3l-8.9 39-7.2-6.9 7.4-41.2z"/></g><g class="rocket_bg"><path class="st7" d="M492.3 341.5c-.4-.3-.9-.2-1.4.1l-12.7 7.4c.2-.1.3-.1.5-.2h.2c.2 0 .4 0 .6.2 1.5.8 2.8 5.1 3.3 16.3l-8.9 39 12.7-7.4 8.9-39c-.4-11.4-1.7-15.6-3.2-16.4z"/></g><g class="rocket_bg"><path class="st19" d="M411.6 334.2l10.3-49.3 50.4 82.2-3.1 17z"/></g><g class="rocket_bg"><path class="st0" d="M442.3 262.3c0 11.5-24.9 20.8-55.6 20.8s-55.6-9.3-55.6-20.8 24.9-20.8 55.6-20.8 55.6 9.3 55.6 20.8z"/></g><g class="rocket_bg"><path class="st10" d="M356.4 162.2c-3.8 0-7.5-1.7-10.4-4.7-.1-.1-.4-.5-.4-.5l-.3-.3c-1.2-1.4-2.4-3.2-3.3-5.2-2.1-4.6-3.2-10.3-2.9-16.3.1-2.4.4-4.8.9-7.2.5-2.4 1.2-4.7 2.1-6.9.9-2.3 2.1-4.4 3.4-6.2.9-1.3 1.9-2.5 3-3.5.2-.2.5-.4.7-.6.4-.4.7-.6 1-.8.3-.2.5-.4.7-.5 0 0 .4-.3.5-.3l.5-.5.6-.2.8-.5h.2c.8-.4 1.7-.6 2.5-.8.4-.1.7-.1 1-.2.4-.1.8-.1 1.1-.1h2.2c.4 0 .7.1 1.1.2.3 0 .6.1.8.1l.7.1.3.2c4.3 1.4 7.9 4.9 10.3 10 2.4 5.3 3.4 11.9 2.8 18.8-.1 1.6-.4 3.2-.7 4.8-.3 1.6-.8 3.2-1.3 4.7s-1.1 3-1.8 4.4c-.7 1.5-1.5 2.8-2.4 4.1-2.4 3.4-5.3 5.8-8.5 7-1.4.5-2.8.9-4.2 1-.4-.1-.7-.1-1-.1z"/></g><g class="rocket_bg"><path class="st1" d="M357.3 112.9c.2 0 .4-.1.6-.1.2 0 .4-.1.6-.1h1.3c.2 0 .4.1.6.1.2 0 .4.1.6.1 2.8.7 5.3 3.1 7.1 7 2.1 4.5 2.8 10.2 2.3 15.8-.1 1.4-.3 2.8-.6 4.1-.3 1.4-.6 2.7-1.1 4-.4 1.3-.9 2.5-1.5 3.7-.6 1.2-1.2 2.3-1.9 3.3-1.8 2.5-3.8 4.2-5.8 5-.8.3-1.6.5-2.5.6-2.4.2-4.7-.8-6.7-2.9 0-.1-.1-.1-.2-.2s-.1-.2-.2-.3c-.9-1.1-1.8-2.4-2.5-3.9-1.8-3.9-2.6-8.8-2.4-13.7.1-2.1.3-4.2.8-6.2.4-2 1-4 1.8-5.9.8-1.8 1.7-3.6 2.7-5.1.7-1 1.5-1.9 2.2-2.6.2-.2.3-.3.5-.4.2-.2.4-.4.6-.5.2-.1.4-.2.5-.3.2-.1.4-.3.7-.4.8-.6 1.7-1 2.5-1.1z"/></g><g class="rocket_bg"><path class="st10" d="M351 233.7c-3.3 0-6.5-1.2-9.3-3.5-.1-.1-.5-.4-.5-.4l-.3-.3c-1.4-1.3-2.7-2.9-3.9-4.8-2.7-4.4-4.3-9.9-4.8-15.9-.2-2.4-.2-4.9 0-7.3.2-2.5.7-4.8 1.3-7.1.7-2.4 1.6-4.6 2.7-6.6.8-1.4 1.6-2.7 2.6-3.8.2-.2.4-.5.6-.7l.2-.2c.2-.3.5-.5.7-.7.2-.2.5-.4.7-.6 0 0 .4-.4.6-.5l.2-.2.4-.3c1.2-.8 2.4-1.5 3.7-2l.9-.3c.4-.1.8-.2 1.1-.3.3-.1.7-.1 1-.1.4-.1.8-.1 1.1-.1h1.8l.4.1c4.7.7 9 3.9 12 8.9s4.8 11.5 4.9 18.3c0 1.6 0 3.3-.2 4.8-.1 1.6-.4 3.2-.7 4.8-.3 1.6-.8 3.1-1.3 4.6-.5 1.5-1.2 3-1.9 4.3-2 3.6-4.6 6.3-7.6 7.9-1.3.7-2.7 1.2-4.1 1.4-.7.6-1.5.6-2.3.6z"/></g><g class="rocket_bg"><path class="st1" d="M347.7 184.5c.2-.1.4-.1.5-.1.2-.1.4-.1.6-.2.2 0 .4 0 .6-.1.2 0 .4-.1.7-.1h1.2c2.8.4 5.6 2.5 7.9 6.2 2.6 4.2 3.9 9.8 4.1 15.4 0 1.4 0 2.8-.1 4.2-.1 1.4-.3 2.7-.6 4.1-.3 1.3-.6 2.6-1.1 3.8-.4 1.2-.9 2.4-1.5 3.5-1.5 2.7-3.3 4.6-5.2 5.6-.8.4-1.6.7-2.4.8-2.4.4-4.8-.3-7-2.1-.1 0-.1-.1-.2-.1-.1-.1-.2-.2-.3-.2-1-1-2-2.1-2.9-3.6-2.2-3.7-3.6-8.4-4-13.3-.2-2.1-.2-4.2 0-6.3.2-2.1.5-4.1 1.1-6 .5-1.9 1.3-3.7 2.1-5.3.6-1.1 1.2-2 1.9-2.8l.5-.5.6-.6c.2-.1.3-.3.5-.4.2-.2.4-.4.6-.5.9-.7 1.6-1.1 2.4-1.4z"/></g><g class="rocket_bg"><path class="st19" d="M386.3 0s-18.8 20.8-29 48.8c26.6 11.9 56.2 1.4 56.2 1.4C408 30.3 386.4.2 386.3 0z"/></g><path class="st0" d="M203 492l-50.2-28.1c-1.9-1.1-4.2-1-6 0l-12 6.8c-4.2 2.4-4.2 8.4 0 10.8l50.2 28.1c1.9 1.1 4.2 1 6 0l12-6.8c4.2-2.4 4.2-8.4 0-10.8z"/><path class="st2" d="M143.7 409.9c0 .6.7.7 1 .3.8-1.2.9-3.2 1.5-4.5.8-1.9 1.8-3.3 2.6-5.1-.5 0-1.6-.4-2.1-.5-1.9 1.7-3 8.5-3 9.8z"/><path class="st2" d="M145.4 408.1c-.1.4.4.7.7.3.8-1.2.9-3.2 1.5-4.5.8-1.9 1.8-3.3 2.6-5.1-.5 0-1.6-.4-2.1-.5-1.9 1.7-2.5 8.6-2.7 9.8z"/><path class="st2" d="M146.4 407.2c-.1.3.4.7.7.2.8-1.2.9-3 1.4-4.2.8-1.8 1.7-3.1 2.4-4.8-.4 0-1.5-.3-2-.5-1.7 1.7-2.2 8.1-2.5 9.3z"/><path class="st2" d="M145.3 396.9c-.2.7-.3 1.4-.5 2.1l-.6 2.4c0 .4-1.4 7.2-.3 7.4.5.1.6-1 .7-1.4.3-1.4 1-6.9 1.3-6 .1.4-.8 3.5.1 3.7.3.1.7-1.3 1-1.6 1.5-2 1.3-3.4 1.1-4.6-.9-.3-2.3-1.2-2.8-2z"/><path class="st9" d="M194.5 489.6l-7.2-.3s-.3 3-.6 4.7c-.6 2.6-1.9 6.6-2.2 7.8-.5 2.1.8 3.3 2.9 3.8 1.9.4 6.2-1.9 6.8-4.3.4-1.6 2.3-7.4.4-9.2l-.1-2.5z"/><path class="st2" d="M187.2 489.3s-.2 2.1-.5 3.7c.2.4 1.2-.2 2.6 0 1.8.3 3.6 1.2 4.3.6.2-.2.5-.8.8-1.4v-2.5l-7.2-.4z"/><path class="st9" d="M151.9 467.9s-1.2 1.5-2.3 2.5c-2 1.9-10.2 4.8-10.2 7.5 0 1.4 3.4 2.6 6.1 2.7 2.8.1 4.8-1.2 5.9-2.3 1.2-1.1 5.5-1.7 6.1-2.6 1.1-1.5.2-3.2.2-3.2l.6-3-6.4-1.6z"/><path class="st2" d="M149.6 470.4s1.2 1.7 3.4 2.7c1.2.6 4.9-.5 4.9-.5l.6-3-6.8-2s-.6 1.3-2.1 2.8z"/><path class="st10" d="M143.9 398.1c4.4 2.2 5.6 3.7 5.7 3.9 3.6-4.2 8-15.7 11.2-21l-7.3-2.7c-2.5 4.7-7.1 15.6-9.6 19.8z"/><path class="st18" d="M145.2 395.2c5.2 2.4 6.3 4.9 6.5 5.2 4.2-5 23-47.1 23.3-48-2-.3-6.1-4.7-6.3-4.7-6.5 0-19.7 40.7-23.5 47.5z"/><path class="st2" d="M243.3 354.4c-1 .9-2.2 1.8-3.5 2.4 1.5-.4 1.6.5 3.3.3.6-.3 2.3-2.7 1.8-3.2-.7-.8-1.1 0-1.6.5z"/><path class="st2" d="M253.9 355.7c-.7-.2-2.9 0-3.8 0-.3 0-4.7.2-6.6.4-1.6.2-3.3.6-4.8 1-.1 0-.2 0-.2.1l-.9.3c-.3.1-.6.2-.8.3.3.4.7.8 1 1.3 1 1.5 1.9 3.3 2.3 5 2.7-.3 9.8-2 10-2 3.4 0 4.2-1.2 3.6-1.9-.2-.2 2.1-1 1.6-1.8 0 0 .4-.4.4-1.2-.2 0-1.4-1.4-1.8-1.5z"/><path class="st10" d="M232.3 355.8v10.1c3.9-.5 7.7-1.1 10.9-2-.2-.2-2.5-3.5-2.6-8.4-2.6.3-5.4.3-8.3.3z"/><path class="st1" d="M170 348.6c-.7 2.3-3.6 12-3.8 14.5-.2 2.1-1.5 7.6-1.6 9.8l11 7.1c1.6-2.2 10.6-26.9 11.2-27.7-.8.6-16.8-3.7-16.8-3.7z"/><path class="st24" d="M162.9 392.5c-.3 1.6-12.9 76.5-12.9 76.5 2.7 3.6 9.2 2.8 9.2 2.8s21.7-72.3 17.5-75.7c-.2-1.3-13.1-3-13.8-3.6z"/><path class="st24" d="M171 401.6c.2 1.5 14.4 87.6 14.5 87.8 4.8 4.5 11.9 1.2 12 1 0 0-5.8-84.6-6.2-88-2.4 1.5-18.8.4-20.3-.8z"/><path class="st18" d="M168.2 348.6c.5-.5 3-1 3.6-1.4-7.5-1.5-9.7 14.2-9.7 18 0 8-1.3 34.6-1.3 34.6 1.1 1.6 3 2.2 3 2.2l4.1-6.6s.2-3.5.7-8.8c.2-2.4.5-4.8.7-7.3.1-.9.3-3.3.3-3.3-.1-.3-1.7-2.8-2.1-4-.1-.1-.1-.2-.1-.4-.8-2.2-1.7-4.4-2.1-6.7-.4-2.2-1.1-5-.9-7.3.1-.9.2-3.4.6-4.3l3-1.2c.3-.5-.8-2-.7-2.3-.1-.2.4-.7.9-1.2z"/><path class="st18" d="M187.8 350.1c-.5-.2-.9-.4-1.3-.5-.1 0-.1-.1-.2-.1-.4-.2-9.3 15.3-11.1 16.3-1.1.7-2 1.4-2.8 2.3-1.2 1.5-2 3.3-2.4 5.6 0 .1 0 .2-.1.3-.3 1.2-1.2 4.9-1.9 7.9-.3 1.5-.6 2.8-.7 3.6-.4 4.6-.2 9.9-.2 9.9l3.3 8.2c9.1 5.4 21.9 3.6 21.9 3.6s-1.5-25.3 3.3-51.3c.5-2-4.1-4.2-7.8-5.8z"/><path class="st18" d="M236.1 355.4c-7.7.7-40.4-1.6-44.2-3.1.1.1.2 12.9-.4 14.8 0 0 17.5 1.6 47.4-1.8 0 0-1.3-2.4-1.7-3.8-.6-1.6-1.1-3.7-1.1-6.1z"/><path class="st8" d="M170 347.3c-.6.4-1.3.9-1.8 1.4-.5.5-1 1-1 1.3-.1.4 1 1.8.7 2.3l-3 1.2c-.4.9-.5 3.3-.6 4.3-.2 2.2.5 5.1.9 7.3.4 2.3 1.3 4.6 2.1 6.7 0 .1.1.3.1.4.4 1.2 1.7 3.4 2 3.6-.4-1-1.1-2.3-1.5-3.5-.2-.8-.5-1.5-.6-2.2-.3-2.5-.4-5.1-.2-7.6 0-.2 0-.5.1-.7.2-2.9.7-5.8 1.6-8.6.2-.8.6-1.7 1.2-2.5.1-.2.2-.4.3-.5.5-.7 5.6-4.2 6.2-4.6-.6-.2-6.4 1.8-6.5 1.7z"/><path class="st8" d="M180.4 347.1c-.6.5 2.9 5.3 2.4 6-.6.9-1.5 1.5-2 2.2-10.4 11.7-11.4 19.7-11.4 20.4.2-.8 9.4-11.6 11.3-12.6.9-.5.2-3 .5-3.8.6 0 2 1.1 2.6.3.1-.1 5.1-5 4-8.5-1.2-3.6-6.2-5.1-7.4-4z"/><path class="st10" d="M182.6 347.9s.1 1.7.5 2.1c-2.4 2.9-9.3 2-9.6.2 0-.1 1.3-2.8 1.3-3.1-1.9.7-3.7 1.9-3.7 1.9-1.1.8-1.5 3.6-1.2 4.1.7-.9 3.4-1.8 3.4-1.8.8 1.5.4 4.7.4 4.7 4.1 0 8.3-2.2 9.1-2.9 3.8-2.9.6-5.7-.2-5.2z"/><path class="st2" d="M173.7 344.3c0 .3 1 4.1-.4 5.9.3 1.8 7.4 2.7 9.8-.2-.8-.9-.7-5.8.4-7.9-.6.3-8 2.5-9.8 2.2z"/><path class="st2" d="M177.5 326.5c-4.4-.6-8.7.2-10 4.7-.5 1.6.2 3.9-.4 6-1.1 3.6.9 9.1 3.5 12 .4.4.9.7 1.5.8 3.1.6 10.7-4.1 11.2-7.9 0 0 .7-5.2.7-5.3.7-4.9-1.8-9.6-6.5-10.3z"/><path class="st24" d="M166.6 329.3c-.3 1.6.7 5.5 15.8 4.4 2.1 3.3.7 9 .7 9 4.9-3.3 7.5-12.3 3.1-17.5-5.9-7-18.4-3-19.6 4.1z"/><path class="st2" d="M183.1 334.8c-.4-.1-.8 0-1.1.1 1.2 1.9 1.3 4.5.4 6.6 1.1-.2 2.4-2.8 2.5-3.8.1-1.2-.7-2.7-1.8-2.9z"/></svg>